%TF.GenerationSoftware,KiCad,Pcbnew,7.0.9+dfsg-1*%
%TF.CreationDate,2023-12-18T20:04:22+07:00*%
%TF.ProjectId,wifi,77696669-2e6b-4696-9361-645f70636258,rev?*%
%TF.SameCoordinates,Original*%
%TF.FileFunction,Soldermask,Top*%
%TF.FilePolarity,Negative*%
%FSLAX46Y46*%
G04 Gerber Fmt 4.6, Leading zero omitted, Abs format (unit mm)*
G04 Created by KiCad (PCBNEW 7.0.9+dfsg-1) date 2023-12-18 20:04:22*
%MOMM*%
%LPD*%
G01*
G04 APERTURE LIST*
%ADD10C,1.800000*%
%ADD11C,1.524000*%
G04 APERTURE END LIST*
%TO.C,*%
G36*
X145607949Y-112388845D02*
G01*
X145708766Y-112488655D01*
X145802784Y-112580333D01*
X145886954Y-112661013D01*
X145958224Y-112727826D01*
X146013545Y-112777907D01*
X146049867Y-112808388D01*
X146063142Y-112816727D01*
X146084565Y-112805529D01*
X146128826Y-112769859D01*
X146194951Y-112710616D01*
X146281967Y-112628699D01*
X146388899Y-112525007D01*
X146514772Y-112400436D01*
X146518397Y-112396819D01*
X146943300Y-111972719D01*
X147031616Y-112003112D01*
X147087640Y-112024871D01*
X147150099Y-112052886D01*
X147210847Y-112082979D01*
X147261740Y-112110970D01*
X147294635Y-112132682D01*
X147302603Y-112142145D01*
X147290628Y-112155793D01*
X147256631Y-112190883D01*
X147203502Y-112244571D01*
X147134135Y-112314010D01*
X147051420Y-112396354D01*
X146958249Y-112488758D01*
X146857513Y-112588376D01*
X146752105Y-112692361D01*
X146644915Y-112797869D01*
X146538836Y-112902052D01*
X146436759Y-113002066D01*
X146341575Y-113095065D01*
X146256176Y-113178202D01*
X146183454Y-113248631D01*
X146126300Y-113303507D01*
X146087606Y-113339985D01*
X146070264Y-113355217D01*
X146069783Y-113355474D01*
X146055589Y-113344345D01*
X146019079Y-113311039D01*
X145962654Y-113257866D01*
X145888717Y-113187137D01*
X145799667Y-113101162D01*
X145697908Y-113002253D01*
X145585839Y-112892720D01*
X145465864Y-112774874D01*
X145443331Y-112752679D01*
X145309314Y-112619995D01*
X145188622Y-112499272D01*
X145082983Y-112392300D01*
X144994125Y-112300873D01*
X144923776Y-112226783D01*
X144873664Y-112171822D01*
X144845518Y-112137784D01*
X144839957Y-112126854D01*
X144866910Y-112103582D01*
X144920647Y-112072953D01*
X144994811Y-112038210D01*
X145083046Y-112002596D01*
X145085134Y-112001813D01*
X145183109Y-111965156D01*
X145607949Y-112388845D01*
G37*
G36*
X146062273Y-115164328D02*
G01*
X146099095Y-115198414D01*
X146155998Y-115252475D01*
X146230656Y-115324261D01*
X146320744Y-115411525D01*
X146423935Y-115512016D01*
X146537904Y-115623486D01*
X146660325Y-115743685D01*
X146719254Y-115801700D01*
X146879583Y-115960310D01*
X147018054Y-116098632D01*
X147134134Y-116216112D01*
X147227290Y-116312197D01*
X147296989Y-116386335D01*
X147342697Y-116437971D01*
X147363883Y-116466554D01*
X147365181Y-116471928D01*
X147344730Y-116488404D01*
X147301292Y-116515004D01*
X147243411Y-116547143D01*
X147179631Y-116580232D01*
X147118498Y-116609687D01*
X147070018Y-116630367D01*
X147058048Y-116631633D01*
X147041547Y-116626049D01*
X147018152Y-116611511D01*
X146985501Y-116585916D01*
X146941232Y-116547159D01*
X146882980Y-116493138D01*
X146808384Y-116421747D01*
X146715080Y-116330884D01*
X146600706Y-116218444D01*
X146539188Y-116157731D01*
X146046138Y-115670732D01*
X145714830Y-115998756D01*
X145616492Y-116096150D01*
X145517054Y-116194689D01*
X145422016Y-116288919D01*
X145336876Y-116373386D01*
X145267135Y-116442635D01*
X145230553Y-116479007D01*
X145170218Y-116537296D01*
X145117255Y-116585221D01*
X145077180Y-116618011D01*
X145055507Y-116630895D01*
X145054922Y-116630931D01*
X145027458Y-116623073D01*
X144979918Y-116602776D01*
X144920676Y-116574371D01*
X144858104Y-116542191D01*
X144800577Y-116510566D01*
X144756466Y-116483828D01*
X144734144Y-116466309D01*
X144733076Y-116464437D01*
X144744007Y-116449598D01*
X144777029Y-116413184D01*
X144829372Y-116357962D01*
X144898262Y-116286697D01*
X144980930Y-116202155D01*
X145074602Y-116107102D01*
X145176506Y-116004304D01*
X145283872Y-115896527D01*
X145393927Y-115786536D01*
X145503899Y-115677098D01*
X145611017Y-115570978D01*
X145712509Y-115470943D01*
X145805602Y-115379757D01*
X145887526Y-115300188D01*
X145955508Y-115235000D01*
X146006777Y-115186960D01*
X146038561Y-115158834D01*
X146047858Y-115152466D01*
X146062273Y-115164328D01*
G37*
G36*
X143984824Y-112989588D02*
G01*
X144008223Y-113011942D01*
X144053278Y-113055652D01*
X144116865Y-113117647D01*
X144195857Y-113194859D01*
X144287129Y-113284220D01*
X144387556Y-113382660D01*
X144494013Y-113487111D01*
X144603372Y-113594503D01*
X144712510Y-113701769D01*
X144818301Y-113805838D01*
X144917619Y-113903643D01*
X145007339Y-113992114D01*
X145084336Y-114068183D01*
X145145483Y-114128781D01*
X145176288Y-114159458D01*
X145288105Y-114271175D01*
X145090594Y-114460865D01*
X145032309Y-114517275D01*
X144953618Y-114594087D01*
X144858753Y-114687132D01*
X144751947Y-114792246D01*
X144637435Y-114905261D01*
X144519450Y-115022012D01*
X144404196Y-115136373D01*
X144296408Y-115243039D01*
X144195939Y-115341608D01*
X144105529Y-115429454D01*
X144027919Y-115503952D01*
X143965849Y-115562477D01*
X143922060Y-115602405D01*
X143899292Y-115621111D01*
X143896979Y-115622192D01*
X143878329Y-115608346D01*
X143851338Y-115573092D01*
X143835911Y-115548254D01*
X143732396Y-115341780D01*
X143642528Y-115104454D01*
X143566822Y-114837646D01*
X143563025Y-114821918D01*
X143547723Y-114734063D01*
X143536327Y-114620197D01*
X143528919Y-114488893D01*
X143527054Y-114410463D01*
X143922551Y-114410463D01*
X143938837Y-114584779D01*
X143973925Y-114755875D01*
X144015022Y-114884128D01*
X144031654Y-114913974D01*
X144053738Y-114915208D01*
X144064158Y-114910272D01*
X144085225Y-114893136D01*
X144126463Y-114854632D01*
X144184008Y-114798554D01*
X144253998Y-114728694D01*
X144332570Y-114648846D01*
X144377473Y-114602635D01*
X144457180Y-114519377D01*
X144527957Y-114443788D01*
X144586427Y-114379613D01*
X144629212Y-114330597D01*
X144652933Y-114300484D01*
X144656626Y-114293166D01*
X144644156Y-114276816D01*
X144610568Y-114241092D01*
X144560292Y-114190241D01*
X144497762Y-114128506D01*
X144427407Y-114060136D01*
X144353659Y-113989374D01*
X144280949Y-113920468D01*
X144213710Y-113857662D01*
X144156371Y-113805203D01*
X144113366Y-113767336D01*
X144089124Y-113748307D01*
X144086605Y-113747019D01*
X144070053Y-113757463D01*
X144052511Y-113790032D01*
X144052395Y-113790340D01*
X144036096Y-113831965D01*
X144011923Y-113891730D01*
X143988738Y-113947948D01*
X143947277Y-114084072D01*
X143925289Y-114240902D01*
X143922551Y-114410463D01*
X143527054Y-114410463D01*
X143525585Y-114348723D01*
X143526408Y-114208261D01*
X143531474Y-114076080D01*
X143540866Y-113960753D01*
X143553721Y-113875339D01*
X143621293Y-113608353D01*
X143709217Y-113360385D01*
X143815587Y-113136544D01*
X143854993Y-113067876D01*
X143931681Y-112940477D01*
X143984824Y-112989588D01*
G37*
G36*
X148173328Y-112940084D02*
G01*
X148202841Y-112979156D01*
X148239937Y-113036338D01*
X148280606Y-113105136D01*
X148320839Y-113179054D01*
X148356394Y-113251104D01*
X148419407Y-113402160D01*
X148479187Y-113573411D01*
X148530837Y-113750300D01*
X148549658Y-113825871D01*
X148560933Y-113880720D01*
X148569243Y-113939573D01*
X148574960Y-114008617D01*
X148578457Y-114094038D01*
X148580105Y-114202023D01*
X148580289Y-114334795D01*
X148579265Y-114475150D01*
X148576198Y-114589073D01*
X148569824Y-114684919D01*
X148558879Y-114771041D01*
X148542098Y-114855795D01*
X148518218Y-114947535D01*
X148485975Y-115054614D01*
X148458181Y-115141838D01*
X148434140Y-115209087D01*
X148402977Y-115285865D01*
X148367815Y-115365656D01*
X148331778Y-115441944D01*
X148297990Y-115508214D01*
X148269575Y-115557948D01*
X148249656Y-115584632D01*
X148244577Y-115587398D01*
X148222902Y-115575812D01*
X148201258Y-115555583D01*
X148193553Y-115544059D01*
X148187340Y-115525945D01*
X148182462Y-115497735D01*
X148178764Y-115455924D01*
X148176087Y-115397007D01*
X148174276Y-115317478D01*
X148173173Y-115213833D01*
X148172622Y-115082566D01*
X148172466Y-114920172D01*
X148172466Y-114911884D01*
X148172208Y-114742600D01*
X148171369Y-114605350D01*
X148169851Y-114497376D01*
X148167556Y-114415922D01*
X148164386Y-114358230D01*
X148160242Y-114321543D01*
X148155029Y-114303103D01*
X148150720Y-114299576D01*
X148128762Y-114299501D01*
X148076144Y-114299476D01*
X147996998Y-114299501D01*
X147895458Y-114299571D01*
X147775658Y-114299685D01*
X147641730Y-114299839D01*
X147521903Y-114299996D01*
X147358917Y-114300087D01*
X147227189Y-114299754D01*
X147123186Y-114298841D01*
X147043371Y-114297190D01*
X146984211Y-114294646D01*
X146942171Y-114291051D01*
X146913715Y-114286249D01*
X146895308Y-114280082D01*
X146883417Y-114272393D01*
X146882553Y-114271628D01*
X146857561Y-114240399D01*
X146850274Y-114219073D01*
X146862309Y-114202195D01*
X146896530Y-114163929D01*
X146950110Y-114107079D01*
X147020222Y-114034445D01*
X147066817Y-113986850D01*
X147574450Y-113986850D01*
X147875462Y-113986850D01*
X148176475Y-113986850D01*
X148164341Y-113889728D01*
X148152595Y-113823905D01*
X148133906Y-113749793D01*
X148110924Y-113674981D01*
X148086302Y-113607057D01*
X148062691Y-113553611D01*
X148042743Y-113522230D01*
X148034151Y-113517124D01*
X148019216Y-113528922D01*
X147984992Y-113561134D01*
X147936196Y-113608991D01*
X147877546Y-113667720D01*
X147813758Y-113732550D01*
X147749551Y-113798709D01*
X147689641Y-113861427D01*
X147638746Y-113915932D01*
X147625547Y-113930404D01*
X147574450Y-113986850D01*
X147066817Y-113986850D01*
X147104041Y-113948828D01*
X147198738Y-113853030D01*
X147301489Y-113749852D01*
X147409466Y-113642096D01*
X147519842Y-113532562D01*
X147629791Y-113424052D01*
X147736487Y-113319367D01*
X147837103Y-113221309D01*
X147928812Y-113132678D01*
X148008788Y-113056277D01*
X148074203Y-112994906D01*
X148122233Y-112951367D01*
X148150049Y-112928461D01*
X148155409Y-112925617D01*
X148173328Y-112940084D01*
G37*
G36*
X145072247Y-112755037D02*
G01*
X145191967Y-112874111D01*
X145315217Y-112996443D01*
X145437174Y-113117261D01*
X145553011Y-113231793D01*
X145657904Y-113335267D01*
X145747026Y-113422912D01*
X145805851Y-113480496D01*
X146057523Y-113726056D01*
X146160846Y-113625939D01*
X146193769Y-113593795D01*
X146248558Y-113540013D01*
X146322340Y-113467422D01*
X146412244Y-113378855D01*
X146515397Y-113277141D01*
X146628928Y-113165112D01*
X146749965Y-113045598D01*
X146875636Y-112921429D01*
X146889001Y-112908220D01*
X147011012Y-112787623D01*
X147125426Y-112674540D01*
X147229877Y-112571309D01*
X147321998Y-112480270D01*
X147399422Y-112403761D01*
X147459783Y-112344120D01*
X147500715Y-112303686D01*
X147519851Y-112284798D01*
X147520947Y-112283722D01*
X147539852Y-112288149D01*
X147578614Y-112312936D01*
X147632466Y-112353863D01*
X147696639Y-112406710D01*
X147766365Y-112467256D01*
X147836874Y-112531280D01*
X147903400Y-112594563D01*
X147961173Y-112652883D01*
X148005425Y-112702021D01*
X148028627Y-112733060D01*
X148031534Y-112741807D01*
X148029444Y-112753793D01*
X148020597Y-112770908D01*
X148003227Y-112795042D01*
X147975574Y-112828084D01*
X147935874Y-112871922D01*
X147882365Y-112928447D01*
X147813284Y-112999548D01*
X147726867Y-113087113D01*
X147621354Y-113193032D01*
X147494980Y-113319194D01*
X147345984Y-113467489D01*
X147310211Y-113503055D01*
X146570360Y-114238540D01*
X147348929Y-115007483D01*
X148127497Y-115776427D01*
X148084742Y-115836449D01*
X147997478Y-115947593D01*
X147891274Y-116064870D01*
X147776984Y-116176442D01*
X147754041Y-116197091D01*
X147633285Y-116304150D01*
X146917853Y-115593479D01*
X146785099Y-115461594D01*
X146658103Y-115335400D01*
X146539306Y-115217325D01*
X146431148Y-115109797D01*
X146336071Y-115015242D01*
X146256515Y-114936088D01*
X146194921Y-114874762D01*
X146153731Y-114833692D01*
X146137623Y-114817569D01*
X146098669Y-114780834D01*
X146068835Y-114757172D01*
X146058698Y-114752329D01*
X146043706Y-114764204D01*
X146006779Y-114798112D01*
X145950579Y-114851476D01*
X145877771Y-114921722D01*
X145791017Y-115006272D01*
X145692980Y-115102552D01*
X145586324Y-115207985D01*
X145538416Y-115255553D01*
X145341318Y-115451431D01*
X145167693Y-115623806D01*
X145016415Y-115773784D01*
X144886357Y-115902471D01*
X144776394Y-116010971D01*
X144685399Y-116100390D01*
X144612247Y-116171835D01*
X144555812Y-116226410D01*
X144514968Y-116265221D01*
X144488588Y-116289373D01*
X144475547Y-116299972D01*
X144473947Y-116300685D01*
X144459288Y-116288945D01*
X144424383Y-116256393D01*
X144373380Y-116207032D01*
X144310423Y-116144866D01*
X144252672Y-116087026D01*
X144180913Y-116013409D01*
X144116442Y-115944810D01*
X144063948Y-115886410D01*
X144028120Y-115843390D01*
X144015108Y-115824529D01*
X143989598Y-115775692D01*
X144768917Y-115007230D01*
X145548236Y-114238768D01*
X145037988Y-113732281D01*
X144916741Y-113611953D01*
X144793568Y-113489761D01*
X144672842Y-113370039D01*
X144558938Y-113257124D01*
X144456229Y-113155351D01*
X144369088Y-113069056D01*
X144301890Y-113002574D01*
X144297226Y-112997965D01*
X144224513Y-112925289D01*
X144161222Y-112860486D01*
X144111238Y-112807658D01*
X144078440Y-112770908D01*
X144066713Y-112754360D01*
X144078839Y-112736323D01*
X144111952Y-112699712D01*
X144161152Y-112649204D01*
X144221539Y-112589475D01*
X144288214Y-112525202D01*
X144356276Y-112461061D01*
X144420827Y-112401728D01*
X144476966Y-112351880D01*
X144519795Y-112316194D01*
X144542474Y-112300274D01*
X144590316Y-112275137D01*
X145072247Y-112755037D01*
G37*
G36*
X146169787Y-111316144D02*
G01*
X146346582Y-111324596D01*
X146507221Y-111340273D01*
X146609256Y-111356413D01*
X146931706Y-111435774D01*
X147240508Y-111546196D01*
X147533670Y-111686699D01*
X147809200Y-111856299D01*
X148065107Y-112054017D01*
X148116422Y-112099247D01*
X148254388Y-112236098D01*
X148393813Y-112397131D01*
X148527511Y-112572825D01*
X148648297Y-112753659D01*
X148748984Y-112930112D01*
X148760218Y-112952224D01*
X148892162Y-113253224D01*
X148989791Y-113559759D01*
X149053041Y-113871253D01*
X149081851Y-114187134D01*
X149076160Y-114506827D01*
X149035905Y-114829758D01*
X148987290Y-115056781D01*
X148906086Y-115318411D01*
X148794241Y-115581762D01*
X148654922Y-115840338D01*
X148491298Y-116087639D01*
X148471828Y-116114041D01*
X148394376Y-116209789D01*
X148299431Y-116314346D01*
X148192874Y-116422290D01*
X148080586Y-116528202D01*
X147968445Y-116626659D01*
X147862332Y-116712241D01*
X147768127Y-116779528D01*
X147715846Y-116811003D01*
X147678373Y-116832793D01*
X147626851Y-116864549D01*
X147598357Y-116882691D01*
X147472055Y-116955081D01*
X147320474Y-117027198D01*
X147152959Y-117095374D01*
X146978860Y-117155941D01*
X146807524Y-117205232D01*
X146728910Y-117223831D01*
X146476171Y-117271080D01*
X146242033Y-117297760D01*
X146017434Y-117304403D01*
X145793311Y-117291544D01*
X145719452Y-117283304D01*
X145421839Y-117234384D01*
X145144266Y-117162727D01*
X144879508Y-117065665D01*
X144620339Y-116940528D01*
X144359535Y-116784646D01*
X144346198Y-116775915D01*
X144147634Y-116629170D01*
X143952768Y-116454214D01*
X143767332Y-116257573D01*
X143597057Y-116045771D01*
X143447677Y-115825334D01*
X143336868Y-115627012D01*
X143220807Y-115360226D01*
X143130506Y-115077931D01*
X143067202Y-114786721D01*
X143032130Y-114493189D01*
X143030499Y-114408981D01*
X143374629Y-114408981D01*
X143388052Y-114612693D01*
X143418565Y-114810007D01*
X143467907Y-115012873D01*
X143521699Y-115185990D01*
X143626062Y-115443965D01*
X143761505Y-115691964D01*
X143924916Y-115926482D01*
X144113188Y-116144012D01*
X144323210Y-116341047D01*
X144551874Y-116514082D01*
X144796071Y-116659611D01*
X144854564Y-116689045D01*
X145015555Y-116759884D01*
X145192017Y-116824684D01*
X145374359Y-116880682D01*
X145552988Y-116925113D01*
X145718311Y-116955213D01*
X145815137Y-116965862D01*
X146053666Y-116975334D01*
X146276961Y-116966767D01*
X146324459Y-116962552D01*
X146597600Y-116920403D01*
X146872111Y-116848468D01*
X147137854Y-116749799D01*
X147320000Y-116662899D01*
X147400661Y-116619675D01*
X147474663Y-116578825D01*
X147534077Y-116544801D01*
X147570978Y-116522058D01*
X147572261Y-116521179D01*
X147653735Y-116461313D01*
X147745606Y-116388268D01*
X147839921Y-116308891D01*
X147928728Y-116230031D01*
X148004075Y-116158536D01*
X148052556Y-116107578D01*
X148101882Y-116049708D01*
X148155520Y-115984234D01*
X148208906Y-115917056D01*
X148257478Y-115854073D01*
X148296674Y-115801184D01*
X148321932Y-115764289D01*
X148329041Y-115750087D01*
X148338183Y-115731044D01*
X148360699Y-115696282D01*
X148365912Y-115688865D01*
X148420614Y-115600382D01*
X148479191Y-115485112D01*
X148538560Y-115350361D01*
X148595635Y-115203433D01*
X148647332Y-115051633D01*
X148677124Y-114951910D01*
X148708787Y-114807551D01*
X148731190Y-114638799D01*
X148744122Y-114454858D01*
X148747375Y-114264933D01*
X148740738Y-114078227D01*
X148724002Y-113903944D01*
X148703760Y-113782345D01*
X148629899Y-113506526D01*
X148524161Y-113235403D01*
X148389428Y-112975189D01*
X148228584Y-112732097D01*
X148197171Y-112690754D01*
X148119719Y-112597402D01*
X148028269Y-112497462D01*
X147929909Y-112397868D01*
X147831727Y-112305554D01*
X147740809Y-112227455D01*
X147667946Y-112172959D01*
X147626612Y-112144804D01*
X147574345Y-112108551D01*
X147554863Y-112094888D01*
X147367680Y-111979573D01*
X147154947Y-111877188D01*
X146924253Y-111790055D01*
X146683186Y-111720497D01*
X146439334Y-111670835D01*
X146200286Y-111643391D01*
X146063646Y-111638559D01*
X145941401Y-111643520D01*
X145797878Y-111657847D01*
X145644804Y-111679887D01*
X145493904Y-111707989D01*
X145376042Y-111735425D01*
X145095020Y-111826114D01*
X144824048Y-111948521D01*
X144566852Y-112100146D01*
X144327155Y-112278492D01*
X144108681Y-112481060D01*
X143915155Y-112705354D01*
X143899819Y-112725548D01*
X143734147Y-112974232D01*
X143598407Y-113238477D01*
X143493710Y-113515181D01*
X143421166Y-113801243D01*
X143381887Y-114093560D01*
X143376563Y-114186918D01*
X143374629Y-114408981D01*
X143030499Y-114408981D01*
X143026526Y-114203930D01*
X143038039Y-114033062D01*
X143088297Y-113707146D01*
X143170376Y-113394566D01*
X143283453Y-113096609D01*
X143426707Y-112814562D01*
X143599317Y-112549712D01*
X143800459Y-112303348D01*
X144029312Y-112076757D01*
X144285056Y-111871226D01*
X144515304Y-111718672D01*
X144582649Y-111678792D01*
X144639632Y-111646750D01*
X144679384Y-111626303D01*
X144694122Y-111620822D01*
X144717701Y-111613479D01*
X144761999Y-111594340D01*
X144810942Y-111570752D01*
X144901298Y-111530786D01*
X145016613Y-111488045D01*
X145147524Y-111445456D01*
X145284665Y-111405945D01*
X145418672Y-111372439D01*
X145501746Y-111354864D01*
X145642814Y-111334277D01*
X145807867Y-111320971D01*
X145986870Y-111314931D01*
X146169787Y-111316144D01*
G37*
%TD*%
D10*
%TO.C,UP*%
X133380000Y-116810000D03*
X135920000Y-116810000D03*
%TD*%
%TO.C,B*%
X154910000Y-126970000D03*
X157450000Y-126970000D03*
%TD*%
%TO.C,SSD1306*%
X142240000Y-81250000D03*
X144780000Y-81250000D03*
X147320000Y-81250000D03*
X149860000Y-81250000D03*
%TD*%
%TO.C,RIGHT*%
X139700000Y-123160000D03*
X142240000Y-123160000D03*
%TD*%
%TO.C,DOWN*%
X133350000Y-129510000D03*
X135890000Y-129510000D03*
%TD*%
%TO.C,A*%
X159990000Y-118080000D03*
X162530000Y-118080000D03*
%TD*%
%TO.C,LEFT*%
X127000000Y-123160000D03*
X129540000Y-123160000D03*
%TD*%
D11*
%TO.C,R2*%
X134620000Y-92710000D03*
X134620000Y-100330000D03*
%TD*%
D10*
%TO.C,OTAK DISINI*%
X135860000Y-85060000D03*
X138400000Y-85060000D03*
X140940000Y-85060000D03*
X143480000Y-85060000D03*
X146020000Y-85060000D03*
X148560000Y-85060000D03*
X151100000Y-85060000D03*
X153640000Y-85060000D03*
X153640000Y-107920000D03*
X151100000Y-107920000D03*
X148560000Y-107920000D03*
X146020000Y-107920000D03*
X143480000Y-107920000D03*
X140940000Y-107920000D03*
X138400000Y-107920000D03*
X135860000Y-107920000D03*
%TD*%
D11*
%TO.C,R1*%
X130810000Y-92710000D03*
X130810000Y-100330000D03*
%TD*%
M02*
