M48
; DRILL file {KiCad 7.0.9+dfsg-1} date Sen 18 Des 2023 08:04:30 
; FORMAT={2:4/ absolute / inch / suppress leading zeros}
; #@! TF.CreationDate,2023-12-18T20:04:30+07:00
; #@! TF.GenerationSoftware,Kicad,Pcbnew,7.0.9+dfsg-1
; #@! TF.FileFunction,Plated,1,2,PTH
FMAT,2
INCH,TZ
; #@! TA.AperFunction,Plated,PTH,ViaDrill
T1C0.0157
; #@! TA.AperFunction,Plated,PTH,ComponentDrill
T2C0.0300
; #@! TA.AperFunction,Plated,PTH,ComponentDrill
T3C0.0400
%
G90
G05
T1
X52000Y-43000
X52500Y-45000
X53000Y-44000
X54500Y-37000
X55488Y-38988
X56000Y-36000
X56488Y-34988
X56500Y-35500
X56500Y-43500
X57500Y-35500
X57988Y-36488
X58988Y-36988
X59000Y-39500
X59488Y-38988
X59500Y-38000
X60000Y-36000
X60000Y-44000
X61000Y-40000
X62000Y-36500
X63500Y-36500
T2
X51500Y-36500
X51500Y-39500
X53000Y-36500
X53000Y-39500
T3
X50000Y-48488
X51000Y-48488
X52500Y-50988
X52512Y-45988
X53488Y-33488
X53488Y-42488
X53500Y-50988
X53512Y-45988
X54488Y-33488
X54488Y-42488
X55000Y-48488
X55488Y-33488
X55488Y-42488
X56000Y-31988
X56000Y-48488
X56488Y-33488
X56488Y-42488
X57000Y-31988
X57488Y-33488
X57488Y-42488
X58000Y-31988
X58488Y-33488
X58488Y-42488
X59000Y-31988
X59488Y-33488
X59488Y-42488
X60488Y-33488
X60488Y-42488
X60988Y-49988
X61988Y-49988
X62988Y-46488
X63988Y-46488
T0
M30
