%TF.GenerationSoftware,KiCad,Pcbnew,7.0.9+dfsg-1*%
%TF.CreationDate,2023-12-18T20:04:21+07:00*%
%TF.ProjectId,wifi,77696669-2e6b-4696-9361-645f70636258,rev?*%
%TF.SameCoordinates,Original*%
%TF.FileFunction,Legend,Top*%
%TF.FilePolarity,Positive*%
%FSLAX46Y46*%
G04 Gerber Fmt 4.6, Leading zero omitted, Abs format (unit mm)*
G04 Created by KiCad (PCBNEW 7.0.9+dfsg-1) date 2023-12-18 20:04:21*
%MOMM*%
%LPD*%
G01*
G04 APERTURE LIST*
%ADD10C,0.150000*%
%ADD11C,0.100000*%
G04 APERTURE END LIST*
D10*
G36*
X122871990Y-105734893D02*
G01*
X122902682Y-105735435D01*
X122933324Y-105736360D01*
X122963903Y-105737686D01*
X122994404Y-105739432D01*
X123024815Y-105741616D01*
X123055119Y-105744255D01*
X123085305Y-105747368D01*
X123115357Y-105750973D01*
X123145262Y-105755088D01*
X123175006Y-105759731D01*
X123204575Y-105764920D01*
X123233954Y-105770674D01*
X123263131Y-105777011D01*
X123292090Y-105783948D01*
X123320818Y-105791503D01*
X123349301Y-105799696D01*
X123377525Y-105808543D01*
X123405476Y-105818064D01*
X123433140Y-105828276D01*
X123460503Y-105839197D01*
X123487551Y-105850845D01*
X123514270Y-105863239D01*
X123540646Y-105876397D01*
X123566666Y-105890336D01*
X123592314Y-105905075D01*
X123617578Y-105920633D01*
X123642442Y-105937026D01*
X123666894Y-105954273D01*
X123690920Y-105972393D01*
X123714504Y-105991403D01*
X123737634Y-106011322D01*
X123758203Y-106029648D01*
X123777903Y-106048544D01*
X123796747Y-106067982D01*
X123814750Y-106087934D01*
X123831927Y-106108373D01*
X123848290Y-106129270D01*
X123863856Y-106150599D01*
X123878636Y-106172331D01*
X123892647Y-106194439D01*
X123905902Y-106216895D01*
X123918415Y-106239671D01*
X123930200Y-106262739D01*
X123941273Y-106286073D01*
X123951646Y-106309643D01*
X123961334Y-106333422D01*
X123970351Y-106357383D01*
X123978712Y-106381498D01*
X123986431Y-106405740D01*
X123993522Y-106430079D01*
X123999998Y-106454489D01*
X124005875Y-106478942D01*
X124011166Y-106503410D01*
X124015886Y-106527866D01*
X124020049Y-106552282D01*
X124023669Y-106576629D01*
X124026760Y-106600881D01*
X124031413Y-106648987D01*
X124034122Y-106696377D01*
X124035000Y-106742829D01*
X124035000Y-107509141D01*
X124034039Y-107542231D01*
X124030983Y-107570615D01*
X124023200Y-107601687D01*
X124010617Y-107625707D01*
X123992616Y-107643427D01*
X123968584Y-107655598D01*
X123937904Y-107662971D01*
X123910161Y-107665804D01*
X123878073Y-107666678D01*
X121769647Y-107666678D01*
X121736698Y-107665716D01*
X121708400Y-107662657D01*
X121677372Y-107654860D01*
X121653334Y-107642244D01*
X121635558Y-107624186D01*
X121623313Y-107600064D01*
X121615870Y-107569255D01*
X121612999Y-107541385D01*
X121612110Y-107509141D01*
X121612110Y-107250244D01*
X121874672Y-107250244D01*
X123773049Y-107250244D01*
X123773049Y-106858234D01*
X123771168Y-106793995D01*
X123765650Y-106733769D01*
X123756684Y-106677428D01*
X123744457Y-106624841D01*
X123729157Y-106575880D01*
X123710972Y-106530414D01*
X123690089Y-106488314D01*
X123666698Y-106449452D01*
X123640986Y-106413696D01*
X123613141Y-106380918D01*
X123583351Y-106350989D01*
X123551803Y-106323779D01*
X123518686Y-106299158D01*
X123484188Y-106276997D01*
X123448496Y-106257166D01*
X123411799Y-106239536D01*
X123374284Y-106223978D01*
X123336140Y-106210362D01*
X123297554Y-106198559D01*
X123258714Y-106188439D01*
X123219809Y-106179872D01*
X123181025Y-106172729D01*
X123142552Y-106166882D01*
X123104577Y-106162199D01*
X123067288Y-106158552D01*
X123030874Y-106155812D01*
X122995521Y-106153848D01*
X122961417Y-106152532D01*
X122928752Y-106151734D01*
X122897713Y-106151324D01*
X122868487Y-106151173D01*
X122841263Y-106151151D01*
X122813616Y-106151173D01*
X122783818Y-106151324D01*
X122752066Y-106151737D01*
X122718560Y-106152539D01*
X122683498Y-106153862D01*
X122647079Y-106155836D01*
X122609502Y-106158591D01*
X122570964Y-106162256D01*
X122531665Y-106166963D01*
X122491804Y-106172841D01*
X122451579Y-106180021D01*
X122411189Y-106188632D01*
X122370832Y-106198804D01*
X122330708Y-106210669D01*
X122291014Y-106224356D01*
X122251950Y-106239994D01*
X122213715Y-106257715D01*
X122176506Y-106277649D01*
X122140523Y-106299924D01*
X122105964Y-106324673D01*
X122073028Y-106352024D01*
X122041914Y-106382109D01*
X122012820Y-106415056D01*
X121985945Y-106450997D01*
X121961488Y-106490061D01*
X121939647Y-106532379D01*
X121920621Y-106578080D01*
X121904609Y-106627296D01*
X121891809Y-106680155D01*
X121882421Y-106736788D01*
X121876642Y-106797326D01*
X121874672Y-106861898D01*
X121874672Y-107250244D01*
X121612110Y-107250244D01*
X121612110Y-106746493D01*
X121612451Y-106717932D01*
X121613476Y-106689394D01*
X121615191Y-106660902D01*
X121617600Y-106632480D01*
X121620708Y-106604150D01*
X121624520Y-106575936D01*
X121629040Y-106547861D01*
X121634274Y-106519948D01*
X121640226Y-106492220D01*
X121646901Y-106464701D01*
X121654303Y-106437412D01*
X121662439Y-106410379D01*
X121671312Y-106383623D01*
X121680927Y-106357168D01*
X121691290Y-106331037D01*
X121702404Y-106305253D01*
X121714275Y-106279839D01*
X121726907Y-106254819D01*
X121740306Y-106230216D01*
X121754476Y-106206052D01*
X121769422Y-106182351D01*
X121785149Y-106159136D01*
X121801661Y-106136430D01*
X121818963Y-106114257D01*
X121837061Y-106092639D01*
X121855958Y-106071600D01*
X121875661Y-106051162D01*
X121896173Y-106031349D01*
X121917499Y-106012184D01*
X121939645Y-105993691D01*
X121962614Y-105975892D01*
X121986413Y-105958810D01*
X122007176Y-105944629D01*
X122028253Y-105930936D01*
X122049652Y-105917728D01*
X122071380Y-105905002D01*
X122093443Y-105892757D01*
X122115849Y-105880990D01*
X122138603Y-105869699D01*
X122161714Y-105858880D01*
X122185188Y-105848532D01*
X122209032Y-105838652D01*
X122233253Y-105829237D01*
X122257858Y-105820285D01*
X122282854Y-105811794D01*
X122308248Y-105803762D01*
X122334047Y-105796185D01*
X122360257Y-105789061D01*
X122386886Y-105782388D01*
X122413940Y-105776163D01*
X122441427Y-105770385D01*
X122469353Y-105765049D01*
X122497725Y-105760155D01*
X122526551Y-105755699D01*
X122555837Y-105751679D01*
X122585590Y-105748093D01*
X122615817Y-105744938D01*
X122646525Y-105742211D01*
X122677721Y-105739911D01*
X122709412Y-105738035D01*
X122741605Y-105736579D01*
X122774306Y-105735543D01*
X122807523Y-105734923D01*
X122841263Y-105734717D01*
X122871990Y-105734893D01*
G37*
G36*
X123966001Y-104103175D02*
G01*
X123940617Y-104107893D01*
X123917511Y-104120961D01*
X123903108Y-104131263D01*
X123186866Y-104649668D01*
X122529242Y-104187438D01*
X122508426Y-104173077D01*
X122485809Y-104162298D01*
X122466960Y-104159351D01*
X122437701Y-104163904D01*
X122414396Y-104179521D01*
X122401234Y-104203068D01*
X122395318Y-104231212D01*
X122393831Y-104255772D01*
X122393688Y-104274755D01*
X122393688Y-104359019D01*
X122393999Y-104383681D01*
X122395657Y-104411109D01*
X122400482Y-104438381D01*
X122411691Y-104464031D01*
X122430524Y-104485930D01*
X122453349Y-104504345D01*
X122470624Y-104516556D01*
X122901713Y-104799877D01*
X122466960Y-105097243D01*
X122443610Y-105113941D01*
X122422261Y-105132504D01*
X122407435Y-105154177D01*
X122399490Y-105178222D01*
X122395688Y-105203457D01*
X122393900Y-105235629D01*
X122393688Y-105254780D01*
X122393688Y-105339043D01*
X122394146Y-105367833D01*
X122396515Y-105392273D01*
X122404124Y-105419255D01*
X122419534Y-105440529D01*
X122445497Y-105452763D01*
X122463297Y-105454448D01*
X122487415Y-105449927D01*
X122510669Y-105438365D01*
X122529242Y-105426360D01*
X123186866Y-104950697D01*
X123896392Y-105447732D01*
X123918927Y-105462426D01*
X123941500Y-105472308D01*
X123966001Y-105475819D01*
X123993554Y-105471453D01*
X124015499Y-105456334D01*
X124027893Y-105433222D01*
X124033464Y-105405062D01*
X124034865Y-105379866D01*
X124035000Y-105359804D01*
X124035000Y-105276151D01*
X124034844Y-105249146D01*
X124033234Y-105219948D01*
X124028352Y-105194719D01*
X124018384Y-105172285D01*
X124001512Y-105151473D01*
X123981822Y-105135201D01*
X123955621Y-105118614D01*
X123416454Y-104799877D01*
X123958674Y-104464043D01*
X123980010Y-104449185D01*
X124000804Y-104431968D01*
X124018224Y-104410141D01*
X124028774Y-104383143D01*
X124033345Y-104353713D01*
X124034833Y-104323913D01*
X124035000Y-104306507D01*
X124035000Y-104222243D01*
X124034545Y-104193115D01*
X124032197Y-104168012D01*
X124024654Y-104140029D01*
X124009380Y-104117800D01*
X123983644Y-104104951D01*
X123966001Y-104103175D01*
G37*
G36*
X123343981Y-102467711D02*
G01*
X123375205Y-102472544D01*
X123400207Y-102481011D01*
X123425059Y-102497112D01*
X123441718Y-102517657D01*
X123451823Y-102541493D01*
X123457012Y-102567469D01*
X123458924Y-102594432D01*
X123459197Y-102621231D01*
X123459197Y-102747016D01*
X123882348Y-102747016D01*
X123913483Y-102747902D01*
X123940423Y-102750751D01*
X123970243Y-102758107D01*
X123993631Y-102770157D01*
X124011172Y-102787588D01*
X124023454Y-102811087D01*
X124031063Y-102841341D01*
X124034057Y-102868877D01*
X124035000Y-102900889D01*
X124035000Y-102960729D01*
X124033809Y-102995139D01*
X124030174Y-103024132D01*
X124021363Y-103055131D01*
X124007819Y-103078341D01*
X123989320Y-103094814D01*
X123965644Y-103105601D01*
X123936568Y-103111756D01*
X123911086Y-103113964D01*
X123882348Y-103114602D01*
X123459197Y-103114602D01*
X123459197Y-103789933D01*
X123457976Y-103824484D01*
X123454258Y-103853563D01*
X123445277Y-103884606D01*
X123431520Y-103907799D01*
X123412793Y-103924215D01*
X123388903Y-103934929D01*
X123359657Y-103941013D01*
X123334092Y-103943183D01*
X123305324Y-103943806D01*
X123241821Y-103943806D01*
X123231301Y-103943800D01*
X123202085Y-103943263D01*
X123174511Y-103939459D01*
X123150130Y-103930706D01*
X123126416Y-103919382D01*
X121696374Y-103230006D01*
X121675674Y-103219497D01*
X121653758Y-103206004D01*
X121634293Y-103188758D01*
X121620350Y-103165272D01*
X121614610Y-103141391D01*
X121612425Y-103111788D01*
X121612223Y-103093230D01*
X121927184Y-103093230D01*
X121936254Y-103094558D01*
X121961403Y-103100749D01*
X121985478Y-103108077D01*
X122013147Y-103117316D01*
X122043621Y-103128117D01*
X122076113Y-103140130D01*
X122109834Y-103153004D01*
X122132609Y-103161892D01*
X122166629Y-103175423D01*
X122199777Y-103188882D01*
X122231266Y-103201919D01*
X122268117Y-103217187D01*
X122305127Y-103232742D01*
X122342232Y-103248543D01*
X122379369Y-103264551D01*
X122416475Y-103280726D01*
X122453486Y-103297029D01*
X122490340Y-103313420D01*
X122526972Y-103329860D01*
X122563319Y-103346308D01*
X122599319Y-103362726D01*
X122634908Y-103379074D01*
X122670023Y-103395312D01*
X122704600Y-103411400D01*
X122738577Y-103427300D01*
X122771889Y-103442971D01*
X122804474Y-103458374D01*
X122836268Y-103473469D01*
X122867208Y-103488217D01*
X122897231Y-103502578D01*
X122926273Y-103516512D01*
X122954271Y-103529981D01*
X122981163Y-103542944D01*
X123006884Y-103555362D01*
X123031371Y-103567195D01*
X123076392Y-103588949D01*
X123115719Y-103607889D01*
X123148845Y-103623698D01*
X123175265Y-103636060D01*
X123175265Y-103093230D01*
X121927184Y-103093230D01*
X121612223Y-103093230D01*
X121612110Y-103082850D01*
X121612110Y-102900889D01*
X121613083Y-102868877D01*
X121616160Y-102841341D01*
X121623939Y-102811087D01*
X121636435Y-102787588D01*
X121654204Y-102770157D01*
X121677805Y-102758107D01*
X121707795Y-102750751D01*
X121734818Y-102747902D01*
X121765983Y-102747016D01*
X123175265Y-102747016D01*
X123175265Y-102621231D01*
X123175546Y-102593381D01*
X123177516Y-102565924D01*
X123182864Y-102539883D01*
X123193278Y-102516283D01*
X123210446Y-102496146D01*
X123236058Y-102480496D01*
X123261824Y-102472318D01*
X123294002Y-102467671D01*
X123319368Y-102466748D01*
X123343981Y-102467711D01*
G37*
G36*
X121703091Y-98188834D02*
G01*
X121673060Y-98192709D01*
X121650493Y-98203460D01*
X121631154Y-98224574D01*
X121619729Y-98251829D01*
X121614887Y-98276336D01*
X121612710Y-98301827D01*
X121612133Y-98326992D01*
X121612110Y-98339043D01*
X121612370Y-98369619D01*
X121614190Y-98400352D01*
X121619130Y-98430427D01*
X121628750Y-98459028D01*
X121644609Y-98485339D01*
X121661536Y-98503079D01*
X121683509Y-98518727D01*
X121711185Y-98531941D01*
X121745223Y-98542376D01*
X122893775Y-98815317D01*
X122936024Y-98825546D01*
X122981378Y-98836443D01*
X123029337Y-98847858D01*
X123054136Y-98853714D01*
X123079399Y-98859643D01*
X123105063Y-98865628D01*
X123131065Y-98871651D01*
X123157342Y-98877691D01*
X123183832Y-98883731D01*
X123210473Y-98889753D01*
X123237201Y-98895737D01*
X123263954Y-98901665D01*
X123290669Y-98907519D01*
X123317285Y-98913279D01*
X123343737Y-98918929D01*
X123369965Y-98924447D01*
X123395904Y-98929818D01*
X123421492Y-98935021D01*
X123446668Y-98940038D01*
X123471367Y-98944851D01*
X123495528Y-98949441D01*
X123541984Y-98957877D01*
X123585535Y-98965200D01*
X123625680Y-98971259D01*
X123661919Y-98975907D01*
X123661919Y-98979570D01*
X123622726Y-98985351D01*
X123581336Y-98992100D01*
X123537998Y-98999725D01*
X123492962Y-99008135D01*
X123446476Y-99017240D01*
X123398791Y-99026947D01*
X123374577Y-99031999D01*
X123350156Y-99037166D01*
X123325560Y-99042439D01*
X123300821Y-99047806D01*
X123275968Y-99053255D01*
X123251035Y-99058774D01*
X123226051Y-99064353D01*
X123201047Y-99069981D01*
X123176056Y-99075645D01*
X123151108Y-99081334D01*
X123126235Y-99087037D01*
X123101467Y-99092743D01*
X123076836Y-99098439D01*
X123052373Y-99104115D01*
X123028110Y-99109760D01*
X123004076Y-99115361D01*
X122956826Y-99126389D01*
X122910872Y-99137107D01*
X121748276Y-99413712D01*
X121724307Y-99420339D01*
X121693902Y-99432614D01*
X121669555Y-99447324D01*
X121650594Y-99464054D01*
X121632526Y-99488789D01*
X121621240Y-99515401D01*
X121615140Y-99542908D01*
X121612630Y-99570332D01*
X121612115Y-99596692D01*
X121612110Y-99603000D01*
X121612110Y-99753210D01*
X121612384Y-99781234D01*
X121614295Y-99809796D01*
X121619484Y-99838057D01*
X121629589Y-99865180D01*
X121646248Y-99890328D01*
X121664030Y-99907389D01*
X121687112Y-99922516D01*
X121716184Y-99935354D01*
X121751939Y-99945551D01*
X122757609Y-100183688D01*
X122791186Y-100191604D01*
X122825120Y-100199544D01*
X122859340Y-100207492D01*
X122893775Y-100215431D01*
X122928353Y-100223345D01*
X122963002Y-100231219D01*
X122997652Y-100239036D01*
X123032230Y-100246780D01*
X123066665Y-100254436D01*
X123100885Y-100261988D01*
X123134819Y-100269419D01*
X123168395Y-100276713D01*
X123201542Y-100283855D01*
X123234188Y-100290829D01*
X123266262Y-100297618D01*
X123297691Y-100304206D01*
X123328405Y-100310578D01*
X123358332Y-100316718D01*
X123387401Y-100322609D01*
X123415539Y-100328236D01*
X123442675Y-100333582D01*
X123468738Y-100338632D01*
X123493656Y-100343370D01*
X123539771Y-100351844D01*
X123580448Y-100358876D01*
X123615114Y-100364339D01*
X123643197Y-100368106D01*
X123654591Y-100369312D01*
X123654591Y-100372976D01*
X123621071Y-100376242D01*
X123584840Y-100380699D01*
X123546221Y-100386237D01*
X123505536Y-100392744D01*
X123463109Y-100400110D01*
X123419263Y-100408224D01*
X123374320Y-100416975D01*
X123328603Y-100426251D01*
X123282436Y-100435943D01*
X123236141Y-100445939D01*
X123190040Y-100456127D01*
X123144458Y-100466399D01*
X123099716Y-100476641D01*
X123056138Y-100486744D01*
X123014046Y-100496597D01*
X122973764Y-100506088D01*
X121745223Y-100796127D01*
X121711185Y-100806549D01*
X121683509Y-100819682D01*
X121661536Y-100835111D01*
X121639974Y-100858540D01*
X121625821Y-100884336D01*
X121617517Y-100911518D01*
X121613504Y-100939107D01*
X121612220Y-100966121D01*
X121612110Y-100985415D01*
X121612110Y-101058688D01*
X121612710Y-101088316D01*
X121615806Y-101116401D01*
X121623483Y-101144249D01*
X121637824Y-101168743D01*
X121660910Y-101186766D01*
X121687076Y-101194431D01*
X121703091Y-101195464D01*
X121727350Y-101191609D01*
X121751939Y-101185083D01*
X123899445Y-100666678D01*
X123923306Y-100660192D01*
X123953575Y-100648208D01*
X123977812Y-100633848D01*
X123996689Y-100617484D01*
X124014675Y-100593189D01*
X124025911Y-100566871D01*
X124031984Y-100539409D01*
X124034482Y-100511685D01*
X124034995Y-100484577D01*
X124035000Y-100478000D01*
X124035000Y-100327180D01*
X124034707Y-100298254D01*
X124032662Y-100269564D01*
X124027111Y-100241689D01*
X124016300Y-100215210D01*
X123998476Y-100190706D01*
X123979452Y-100173973D01*
X123954758Y-100158921D01*
X123923654Y-100145795D01*
X123898992Y-100138235D01*
X123885401Y-100134839D01*
X122750282Y-99865561D01*
X122714128Y-99856481D01*
X122681616Y-99848697D01*
X122641136Y-99839172D01*
X122593930Y-99828223D01*
X122568193Y-99822313D01*
X122541240Y-99816166D01*
X122513226Y-99809822D01*
X122484306Y-99803320D01*
X122454636Y-99796699D01*
X122424371Y-99789999D01*
X122393665Y-99783259D01*
X122362675Y-99776520D01*
X122331555Y-99769821D01*
X122300460Y-99763201D01*
X122269546Y-99756700D01*
X122238968Y-99750358D01*
X122208881Y-99744213D01*
X122179441Y-99738307D01*
X122150802Y-99732678D01*
X122123119Y-99727365D01*
X122096548Y-99722409D01*
X122071244Y-99717849D01*
X122025058Y-99710076D01*
X121985802Y-99704361D01*
X121985802Y-99700697D01*
X122025195Y-99694875D01*
X122067158Y-99688005D01*
X122111401Y-99680185D01*
X122157631Y-99671512D01*
X122205556Y-99662085D01*
X122230064Y-99657119D01*
X122254887Y-99652000D01*
X122279987Y-99646742D01*
X122305329Y-99641356D01*
X122330877Y-99635854D01*
X122356593Y-99630249D01*
X122382442Y-99624552D01*
X122408387Y-99618777D01*
X122434391Y-99612934D01*
X122460418Y-99607037D01*
X122486432Y-99601098D01*
X122512395Y-99595128D01*
X122538273Y-99589140D01*
X122564028Y-99583146D01*
X122589623Y-99577158D01*
X122615023Y-99571189D01*
X122640191Y-99565251D01*
X122665091Y-99559355D01*
X122689685Y-99553514D01*
X122713938Y-99547741D01*
X122737812Y-99542047D01*
X122761273Y-99536444D01*
X123892117Y-99266556D01*
X123917268Y-99259505D01*
X123949173Y-99247076D01*
X123974721Y-99232638D01*
X123994618Y-99216438D01*
X124013577Y-99192518D01*
X124025420Y-99166479D01*
X124031821Y-99138899D01*
X124034454Y-99110358D01*
X124034995Y-99081436D01*
X124035000Y-99074214D01*
X124035000Y-98906297D01*
X124034735Y-98879306D01*
X124032881Y-98851562D01*
X124027851Y-98823919D01*
X124018055Y-98797228D01*
X124001905Y-98772340D01*
X123977812Y-98750106D01*
X123953575Y-98735685D01*
X123923306Y-98723596D01*
X123899445Y-98717009D01*
X121751939Y-98199214D01*
X121727350Y-98192688D01*
X121703132Y-98188834D01*
X121703091Y-98188834D01*
G37*
G36*
X123882348Y-97546475D02*
G01*
X122546950Y-97546475D01*
X122518197Y-97547113D01*
X122492673Y-97549321D01*
X122463512Y-97555476D01*
X122439730Y-97566264D01*
X122421116Y-97582737D01*
X122407466Y-97605947D01*
X122398570Y-97636945D01*
X122394894Y-97665939D01*
X122393688Y-97700348D01*
X122393688Y-97766905D01*
X122394576Y-97799148D01*
X122397443Y-97827018D01*
X122404872Y-97857827D01*
X122417084Y-97881949D01*
X122434803Y-97900007D01*
X122458750Y-97912623D01*
X122489650Y-97920420D01*
X122517821Y-97923480D01*
X122550614Y-97924441D01*
X123878684Y-97924441D01*
X123910757Y-97923567D01*
X123938458Y-97920734D01*
X123969053Y-97913361D01*
X123992979Y-97901191D01*
X124010865Y-97883471D01*
X124023342Y-97859450D01*
X124031039Y-97828378D01*
X124034054Y-97799995D01*
X124035000Y-97766905D01*
X124035000Y-97700348D01*
X124034057Y-97668336D01*
X124031063Y-97640800D01*
X124023454Y-97610546D01*
X124011172Y-97587047D01*
X123993631Y-97569616D01*
X123970243Y-97557567D01*
X123940423Y-97550211D01*
X123913483Y-97547361D01*
X123882348Y-97546475D01*
G37*
G36*
X121916803Y-97518387D02*
G01*
X121832540Y-97518387D01*
X121797873Y-97519364D01*
X121768179Y-97522461D01*
X121743115Y-97527933D01*
X121716310Y-97539361D01*
X121696323Y-97556063D01*
X121682345Y-97578640D01*
X121673567Y-97607692D01*
X121669909Y-97634093D01*
X121668381Y-97664728D01*
X121668286Y-97675924D01*
X121668286Y-97791329D01*
X121669093Y-97822726D01*
X121671776Y-97850082D01*
X121678956Y-97880628D01*
X121691113Y-97904852D01*
X121709184Y-97923248D01*
X121734107Y-97936310D01*
X121757859Y-97942902D01*
X121786388Y-97946980D01*
X121820088Y-97948752D01*
X121832540Y-97948866D01*
X121916803Y-97948866D01*
X121949918Y-97947992D01*
X121978670Y-97945158D01*
X122003301Y-97940049D01*
X122030147Y-97929148D01*
X122050668Y-97912886D01*
X122065436Y-97890512D01*
X122075023Y-97861273D01*
X122079158Y-97834387D01*
X122080943Y-97802901D01*
X122081057Y-97791329D01*
X122081057Y-97675924D01*
X122080090Y-97643821D01*
X122076991Y-97616038D01*
X122069034Y-97585272D01*
X122056060Y-97561133D01*
X122037369Y-97543019D01*
X122012260Y-97530328D01*
X121980031Y-97522461D01*
X121950765Y-97519364D01*
X121916803Y-97518387D01*
G37*
G36*
X121780638Y-95605966D02*
G01*
X121754036Y-95606341D01*
X121729594Y-95607870D01*
X121700538Y-95612753D01*
X121675736Y-95622204D01*
X121655424Y-95637663D01*
X121639839Y-95660567D01*
X121631393Y-95683496D01*
X121625838Y-95712029D01*
X121623274Y-95746773D01*
X121623101Y-95759839D01*
X121623101Y-96911444D01*
X121623975Y-96943688D01*
X121626808Y-96971557D01*
X121634181Y-97002366D01*
X121646352Y-97026489D01*
X121664072Y-97044547D01*
X121688092Y-97057163D01*
X121719164Y-97064960D01*
X121747548Y-97068019D01*
X121780638Y-97068981D01*
X123879905Y-97068981D01*
X123911666Y-97068107D01*
X123939113Y-97065274D01*
X123969450Y-97057901D01*
X123993196Y-97045730D01*
X124010967Y-97028010D01*
X124023379Y-97003990D01*
X124031047Y-96972918D01*
X124034055Y-96944534D01*
X124035000Y-96911444D01*
X124035000Y-96796039D01*
X124034057Y-96763886D01*
X124031067Y-96736264D01*
X124023472Y-96705967D01*
X124011223Y-96682485D01*
X123993739Y-96665110D01*
X123970442Y-96653134D01*
X123940751Y-96645849D01*
X123913938Y-96643037D01*
X123882958Y-96642166D01*
X122979870Y-96642166D01*
X122979870Y-95896615D01*
X122979597Y-95869842D01*
X122977686Y-95842948D01*
X122972497Y-95817070D01*
X122962392Y-95793346D01*
X122945732Y-95772913D01*
X122920880Y-95756910D01*
X122895878Y-95748499D01*
X122864655Y-95743699D01*
X122840041Y-95742742D01*
X122814783Y-95743658D01*
X122782742Y-95748272D01*
X122757085Y-95756395D01*
X122731581Y-95771947D01*
X122714485Y-95791972D01*
X122704116Y-95815460D01*
X122698791Y-95841403D01*
X122696829Y-95868791D01*
X122696549Y-95896615D01*
X122696549Y-96642166D01*
X121927184Y-96642166D01*
X121927184Y-96502337D01*
X121938175Y-95784263D01*
X121938045Y-95753199D01*
X121937136Y-95724955D01*
X121934670Y-95699583D01*
X121927612Y-95670309D01*
X121914555Y-95646354D01*
X121893651Y-95627839D01*
X121863055Y-95614886D01*
X121832637Y-95608894D01*
X121794950Y-95606150D01*
X121780638Y-95605966D01*
G37*
G36*
X123882348Y-94893998D02*
G01*
X122546950Y-94893998D01*
X122518197Y-94894636D01*
X122492673Y-94896844D01*
X122463512Y-94902998D01*
X122439730Y-94913786D01*
X122421116Y-94930259D01*
X122407466Y-94953469D01*
X122398570Y-94984468D01*
X122394894Y-95013461D01*
X122393688Y-95047871D01*
X122393688Y-95114427D01*
X122394576Y-95146671D01*
X122397443Y-95174541D01*
X122404872Y-95205350D01*
X122417084Y-95229472D01*
X122434803Y-95247530D01*
X122458750Y-95260146D01*
X122489650Y-95267943D01*
X122517821Y-95271002D01*
X122550614Y-95271964D01*
X123878684Y-95271964D01*
X123910757Y-95271090D01*
X123938458Y-95268257D01*
X123969053Y-95260884D01*
X123992979Y-95248713D01*
X124010865Y-95230993D01*
X124023342Y-95206973D01*
X124031039Y-95175901D01*
X124034054Y-95147517D01*
X124035000Y-95114427D01*
X124035000Y-95047871D01*
X124034057Y-95015859D01*
X124031063Y-94988323D01*
X124023454Y-94958069D01*
X124011172Y-94934570D01*
X123993631Y-94917139D01*
X123970243Y-94905089D01*
X123940423Y-94897733D01*
X123913483Y-94894884D01*
X123882348Y-94893998D01*
G37*
G36*
X121916803Y-94865910D02*
G01*
X121832540Y-94865910D01*
X121797873Y-94866886D01*
X121768179Y-94869983D01*
X121743115Y-94875455D01*
X121716310Y-94886884D01*
X121696323Y-94903586D01*
X121682345Y-94926162D01*
X121673567Y-94955215D01*
X121669909Y-94981615D01*
X121668381Y-95012250D01*
X121668286Y-95023447D01*
X121668286Y-95138852D01*
X121669093Y-95170249D01*
X121671776Y-95197604D01*
X121678956Y-95228151D01*
X121691113Y-95252375D01*
X121709184Y-95270771D01*
X121734107Y-95283832D01*
X121757859Y-95290425D01*
X121786388Y-95294503D01*
X121820088Y-95296274D01*
X121832540Y-95296388D01*
X121916803Y-95296388D01*
X121949918Y-95295514D01*
X121978670Y-95292681D01*
X122003301Y-95287572D01*
X122030147Y-95276671D01*
X122050668Y-95260409D01*
X122065436Y-95238034D01*
X122075023Y-95208796D01*
X122079158Y-95181910D01*
X122080943Y-95150424D01*
X122081057Y-95138852D01*
X122081057Y-95023447D01*
X122080090Y-94991344D01*
X122076991Y-94963560D01*
X122069034Y-94932795D01*
X122056060Y-94908656D01*
X122037369Y-94890541D01*
X122012260Y-94877851D01*
X121980031Y-94869983D01*
X121950765Y-94866886D01*
X121916803Y-94865910D01*
G37*
G36*
X121791018Y-91459333D02*
G01*
X121764416Y-91459723D01*
X121739975Y-91461293D01*
X121710919Y-91466261D01*
X121686117Y-91475820D01*
X121665805Y-91491392D01*
X121650219Y-91514403D01*
X121641773Y-91537399D01*
X121636219Y-91565981D01*
X121633655Y-91600749D01*
X121633482Y-91613817D01*
X121633482Y-93314968D01*
X121634356Y-93347071D01*
X121637189Y-93374855D01*
X121644562Y-93405620D01*
X121656732Y-93429759D01*
X121674452Y-93447874D01*
X121698472Y-93460564D01*
X121729545Y-93468431D01*
X121757928Y-93471529D01*
X121791018Y-93472505D01*
X121826365Y-93471362D01*
X121856120Y-93467808D01*
X121880745Y-93461651D01*
X121906397Y-93449065D01*
X121924845Y-93431065D01*
X121937184Y-93407199D01*
X121944509Y-93377016D01*
X121947371Y-93349962D01*
X121948490Y-93318912D01*
X121948555Y-93307641D01*
X121938175Y-92677494D01*
X123878073Y-92677494D01*
X123910161Y-92676620D01*
X123937904Y-92673787D01*
X123968584Y-92666414D01*
X123992616Y-92654244D01*
X124010617Y-92636524D01*
X124023200Y-92612504D01*
X124030983Y-92581431D01*
X124034039Y-92553048D01*
X124035000Y-92519958D01*
X124035000Y-92404553D01*
X124034042Y-92372541D01*
X124031007Y-92345004D01*
X124023312Y-92314751D01*
X124010923Y-92291252D01*
X123993268Y-92273821D01*
X123969774Y-92261771D01*
X123939869Y-92254415D01*
X123912888Y-92251565D01*
X123881737Y-92250680D01*
X121938175Y-92250680D01*
X121948555Y-91620533D01*
X121947842Y-91588340D01*
X121945424Y-91560309D01*
X121940884Y-91536222D01*
X121930812Y-91509866D01*
X121915242Y-91489621D01*
X121893184Y-91474972D01*
X121863653Y-91465403D01*
X121836005Y-91461251D01*
X121803182Y-91459449D01*
X121791018Y-91459333D01*
G37*
G36*
X123231764Y-90047036D02*
G01*
X123261669Y-90047423D01*
X123294488Y-90048426D01*
X123329896Y-90050283D01*
X123367563Y-90053234D01*
X123407163Y-90057517D01*
X123448369Y-90063371D01*
X123490853Y-90071036D01*
X123534288Y-90080748D01*
X123578347Y-90092749D01*
X123622701Y-90107276D01*
X123667024Y-90124568D01*
X123710988Y-90144864D01*
X123732734Y-90156213D01*
X123754267Y-90168402D01*
X123775546Y-90181462D01*
X123796532Y-90195423D01*
X123817182Y-90210313D01*
X123837456Y-90226163D01*
X123857313Y-90243004D01*
X123889130Y-90273371D01*
X123917818Y-90305247D01*
X123943526Y-90338412D01*
X123966402Y-90372643D01*
X123986594Y-90407719D01*
X124004252Y-90443416D01*
X124019524Y-90479515D01*
X124032557Y-90515792D01*
X124043501Y-90552027D01*
X124052504Y-90587997D01*
X124059715Y-90623480D01*
X124065282Y-90658255D01*
X124069353Y-90692099D01*
X124072077Y-90724792D01*
X124073603Y-90756110D01*
X124074078Y-90785833D01*
X124072991Y-90831806D01*
X124069785Y-90876498D01*
X124064547Y-90919856D01*
X124057363Y-90961831D01*
X124048318Y-91002372D01*
X124037499Y-91041426D01*
X124024991Y-91078944D01*
X124010881Y-91114874D01*
X123995253Y-91149166D01*
X123978194Y-91181768D01*
X123959790Y-91212629D01*
X123940126Y-91241699D01*
X123919289Y-91268927D01*
X123897365Y-91294260D01*
X123874438Y-91317650D01*
X123850596Y-91339043D01*
X123812795Y-91367586D01*
X123774127Y-91393100D01*
X123734730Y-91415751D01*
X123694739Y-91435701D01*
X123654290Y-91453114D01*
X123613518Y-91468155D01*
X123572561Y-91480986D01*
X123531554Y-91491772D01*
X123490633Y-91500675D01*
X123449933Y-91507861D01*
X123409591Y-91513492D01*
X123369743Y-91517732D01*
X123330525Y-91520745D01*
X123292072Y-91522694D01*
X123254521Y-91523744D01*
X123218007Y-91524057D01*
X123176492Y-91523632D01*
X123134668Y-91522282D01*
X123092627Y-91519900D01*
X123050462Y-91516377D01*
X123008265Y-91511606D01*
X122966128Y-91505478D01*
X122924143Y-91497885D01*
X122882402Y-91488719D01*
X122840998Y-91477871D01*
X122800022Y-91465233D01*
X122759566Y-91450697D01*
X122719723Y-91434155D01*
X122680585Y-91415499D01*
X122642244Y-91394619D01*
X122604792Y-91371409D01*
X122568321Y-91345760D01*
X122534289Y-91318542D01*
X122503113Y-91289444D01*
X122474702Y-91258646D01*
X122448967Y-91226329D01*
X122425814Y-91192675D01*
X122405153Y-91157862D01*
X122386893Y-91122074D01*
X122370942Y-91085489D01*
X122357210Y-91048289D01*
X122345605Y-91010654D01*
X122336035Y-90972765D01*
X122328410Y-90934802D01*
X122322638Y-90896948D01*
X122318628Y-90859381D01*
X122316289Y-90822282D01*
X122315530Y-90785833D01*
X122539623Y-90785833D01*
X122540772Y-90817620D01*
X122544152Y-90847421D01*
X122549660Y-90875300D01*
X122557194Y-90901320D01*
X122566653Y-90925548D01*
X122577933Y-90948045D01*
X122605549Y-90988107D01*
X122639226Y-91022018D01*
X122678147Y-91050292D01*
X122699318Y-91062475D01*
X122721493Y-91073441D01*
X122744571Y-91083253D01*
X122768448Y-91091977D01*
X122793022Y-91099675D01*
X122818193Y-91106412D01*
X122843856Y-91112253D01*
X122869911Y-91117261D01*
X122896255Y-91121500D01*
X122922785Y-91125034D01*
X122949400Y-91127927D01*
X122975997Y-91130244D01*
X123002474Y-91132049D01*
X123028729Y-91133405D01*
X123054660Y-91134377D01*
X123080165Y-91135028D01*
X123129486Y-91135626D01*
X123175875Y-91135711D01*
X123222456Y-91135626D01*
X123247032Y-91135423D01*
X123272320Y-91135028D01*
X123298212Y-91134377D01*
X123324599Y-91133405D01*
X123351373Y-91132049D01*
X123378425Y-91130244D01*
X123405647Y-91127927D01*
X123432931Y-91125034D01*
X123460168Y-91121500D01*
X123487249Y-91117261D01*
X123514067Y-91112253D01*
X123540512Y-91106412D01*
X123566476Y-91099675D01*
X123591851Y-91091977D01*
X123616529Y-91083253D01*
X123640400Y-91073441D01*
X123663357Y-91062475D01*
X123685291Y-91050292D01*
X123706093Y-91036828D01*
X123725656Y-91022018D01*
X123760627Y-90988107D01*
X123775819Y-90968877D01*
X123789337Y-90948045D01*
X123801073Y-90925548D01*
X123810919Y-90901320D01*
X123818765Y-90875300D01*
X123824504Y-90847421D01*
X123828027Y-90817620D01*
X123829225Y-90785833D01*
X123828027Y-90754047D01*
X123824504Y-90724246D01*
X123818764Y-90696367D01*
X123810917Y-90670346D01*
X123801071Y-90646119D01*
X123789333Y-90623622D01*
X123775813Y-90602790D01*
X123760617Y-90583560D01*
X123725637Y-90549649D01*
X123706069Y-90534839D01*
X123685259Y-90521375D01*
X123663316Y-90509192D01*
X123640349Y-90498226D01*
X123616466Y-90488414D01*
X123591775Y-90479690D01*
X123566385Y-90471992D01*
X123540403Y-90465254D01*
X123513939Y-90459414D01*
X123487100Y-90454406D01*
X123459995Y-90450167D01*
X123432733Y-90446633D01*
X123405421Y-90443739D01*
X123378168Y-90441422D01*
X123351082Y-90439618D01*
X123324271Y-90438262D01*
X123297845Y-90437290D01*
X123271911Y-90436639D01*
X123246578Y-90436244D01*
X123221953Y-90436041D01*
X123175384Y-90435956D01*
X123153421Y-90435966D01*
X123105987Y-90436244D01*
X123081217Y-90436639D01*
X123055883Y-90437290D01*
X123030090Y-90438262D01*
X123003942Y-90439618D01*
X122977542Y-90441422D01*
X122950997Y-90443739D01*
X122924408Y-90446633D01*
X122897882Y-90450167D01*
X122871521Y-90454406D01*
X122845430Y-90459414D01*
X122819714Y-90465254D01*
X122794477Y-90471992D01*
X122769822Y-90479690D01*
X122745854Y-90488414D01*
X122722677Y-90498226D01*
X122700395Y-90509192D01*
X122658935Y-90534839D01*
X122622306Y-90565868D01*
X122591343Y-90602790D01*
X122578247Y-90623622D01*
X122566879Y-90646119D01*
X122557345Y-90670346D01*
X122549748Y-90696367D01*
X122544192Y-90724246D01*
X122540782Y-90754047D01*
X122539623Y-90785833D01*
X122315530Y-90785833D01*
X122316167Y-90751854D01*
X122318163Y-90716900D01*
X122321648Y-90681158D01*
X122326750Y-90644812D01*
X122333598Y-90608047D01*
X122342320Y-90571049D01*
X122353046Y-90534002D01*
X122365905Y-90497093D01*
X122381025Y-90460505D01*
X122398534Y-90424424D01*
X122418563Y-90389036D01*
X122441239Y-90354525D01*
X122466691Y-90321077D01*
X122495048Y-90288877D01*
X122526440Y-90258109D01*
X122560994Y-90228960D01*
X122580832Y-90213986D01*
X122601055Y-90199848D01*
X122642520Y-90173982D01*
X122685114Y-90151174D01*
X122728567Y-90131234D01*
X122772607Y-90113974D01*
X122816962Y-90099205D01*
X122861360Y-90086738D01*
X122905529Y-90076384D01*
X122949197Y-90067956D01*
X122992092Y-90061263D01*
X123033943Y-90056118D01*
X123074476Y-90052332D01*
X123113422Y-90049716D01*
X123150506Y-90048080D01*
X123185459Y-90047238D01*
X123218007Y-90046999D01*
X123231764Y-90047036D01*
G37*
G36*
X123231764Y-88293372D02*
G01*
X123261669Y-88293759D01*
X123294488Y-88294762D01*
X123329896Y-88296620D01*
X123367563Y-88299570D01*
X123407163Y-88303854D01*
X123448369Y-88309708D01*
X123490853Y-88317372D01*
X123534288Y-88327085D01*
X123578347Y-88339085D01*
X123622701Y-88353612D01*
X123667024Y-88370904D01*
X123710988Y-88391200D01*
X123732734Y-88402549D01*
X123754267Y-88414739D01*
X123775546Y-88427799D01*
X123796532Y-88441759D01*
X123817182Y-88456649D01*
X123837456Y-88472500D01*
X123857313Y-88489340D01*
X123889130Y-88519707D01*
X123917818Y-88551584D01*
X123943526Y-88584749D01*
X123966402Y-88618980D01*
X123986594Y-88654055D01*
X124004252Y-88689753D01*
X124019524Y-88725851D01*
X124032557Y-88762129D01*
X124043501Y-88798363D01*
X124052504Y-88834333D01*
X124059715Y-88869816D01*
X124065282Y-88904591D01*
X124069353Y-88938436D01*
X124072077Y-88971128D01*
X124073603Y-89002447D01*
X124074078Y-89032170D01*
X124072991Y-89078143D01*
X124069785Y-89122834D01*
X124064547Y-89166193D01*
X124057363Y-89208168D01*
X124048318Y-89248708D01*
X124037499Y-89287763D01*
X124024991Y-89325280D01*
X124010881Y-89361211D01*
X123995253Y-89395502D01*
X123978194Y-89428104D01*
X123959790Y-89458966D01*
X123940126Y-89488036D01*
X123919289Y-89515263D01*
X123897365Y-89540597D01*
X123874438Y-89563986D01*
X123850596Y-89585380D01*
X123812795Y-89613922D01*
X123774127Y-89639436D01*
X123734730Y-89662087D01*
X123694739Y-89682037D01*
X123654290Y-89699451D01*
X123613518Y-89714491D01*
X123572561Y-89727322D01*
X123531554Y-89738108D01*
X123490633Y-89747012D01*
X123449933Y-89754197D01*
X123409591Y-89759828D01*
X123369743Y-89764068D01*
X123330525Y-89767081D01*
X123292072Y-89769031D01*
X123254521Y-89770080D01*
X123218007Y-89770394D01*
X123176492Y-89769968D01*
X123134668Y-89768618D01*
X123092627Y-89766236D01*
X123050462Y-89762713D01*
X123008265Y-89757942D01*
X122966128Y-89751814D01*
X122924143Y-89744221D01*
X122882402Y-89735055D01*
X122840998Y-89724207D01*
X122800022Y-89711569D01*
X122759566Y-89697033D01*
X122719723Y-89680491D01*
X122680585Y-89661835D01*
X122642244Y-89640956D01*
X122604792Y-89617746D01*
X122568321Y-89592096D01*
X122534289Y-89564878D01*
X122503113Y-89535780D01*
X122474702Y-89504982D01*
X122448967Y-89472666D01*
X122425814Y-89439011D01*
X122405153Y-89404199D01*
X122386893Y-89368410D01*
X122370942Y-89331825D01*
X122357210Y-89294625D01*
X122345605Y-89256990D01*
X122336035Y-89219101D01*
X122328410Y-89181139D01*
X122322638Y-89143284D01*
X122318628Y-89105717D01*
X122316289Y-89068619D01*
X122315530Y-89032170D01*
X122539623Y-89032170D01*
X122540772Y-89063956D01*
X122544152Y-89093757D01*
X122549660Y-89121636D01*
X122557194Y-89147657D01*
X122566653Y-89171884D01*
X122577933Y-89194381D01*
X122605549Y-89234443D01*
X122639226Y-89268354D01*
X122678147Y-89296628D01*
X122699318Y-89308811D01*
X122721493Y-89319777D01*
X122744571Y-89329589D01*
X122768448Y-89338313D01*
X122793022Y-89346011D01*
X122818193Y-89352749D01*
X122843856Y-89358589D01*
X122869911Y-89363597D01*
X122896255Y-89367836D01*
X122922785Y-89371370D01*
X122949400Y-89374264D01*
X122975997Y-89376581D01*
X123002474Y-89378385D01*
X123028729Y-89379741D01*
X123054660Y-89380713D01*
X123080165Y-89381364D01*
X123129486Y-89381962D01*
X123175875Y-89382048D01*
X123222456Y-89381962D01*
X123247032Y-89381759D01*
X123272320Y-89381364D01*
X123298212Y-89380713D01*
X123324599Y-89379741D01*
X123351373Y-89378385D01*
X123378425Y-89376581D01*
X123405647Y-89374264D01*
X123432931Y-89371370D01*
X123460168Y-89367836D01*
X123487249Y-89363597D01*
X123514067Y-89358589D01*
X123540512Y-89352749D01*
X123566476Y-89346011D01*
X123591851Y-89338313D01*
X123616529Y-89329589D01*
X123640400Y-89319777D01*
X123663357Y-89308811D01*
X123685291Y-89296628D01*
X123706093Y-89283164D01*
X123725656Y-89268354D01*
X123760627Y-89234443D01*
X123775819Y-89215213D01*
X123789337Y-89194381D01*
X123801073Y-89171884D01*
X123810919Y-89147657D01*
X123818765Y-89121636D01*
X123824504Y-89093757D01*
X123828027Y-89063956D01*
X123829225Y-89032170D01*
X123828027Y-89000383D01*
X123824504Y-88970582D01*
X123818764Y-88942704D01*
X123810917Y-88916683D01*
X123801071Y-88892456D01*
X123789333Y-88869958D01*
X123775813Y-88849127D01*
X123760617Y-88829897D01*
X123725637Y-88795985D01*
X123706069Y-88781176D01*
X123685259Y-88767711D01*
X123663316Y-88755528D01*
X123640349Y-88744563D01*
X123616466Y-88734750D01*
X123591775Y-88726027D01*
X123566385Y-88718328D01*
X123540403Y-88711591D01*
X123513939Y-88705750D01*
X123487100Y-88700742D01*
X123459995Y-88696504D01*
X123432733Y-88692969D01*
X123405421Y-88690076D01*
X123378168Y-88687759D01*
X123351082Y-88685954D01*
X123324271Y-88684598D01*
X123297845Y-88683627D01*
X123271911Y-88682975D01*
X123246578Y-88682580D01*
X123221953Y-88682377D01*
X123175394Y-88682292D01*
X123153421Y-88682303D01*
X123105987Y-88682580D01*
X123081217Y-88682975D01*
X123055883Y-88683627D01*
X123030090Y-88684598D01*
X123003942Y-88685954D01*
X122977542Y-88687759D01*
X122950997Y-88690076D01*
X122924408Y-88692969D01*
X122897882Y-88696504D01*
X122871521Y-88700742D01*
X122845430Y-88705750D01*
X122819714Y-88711591D01*
X122794477Y-88718328D01*
X122769822Y-88726027D01*
X122745854Y-88734750D01*
X122722677Y-88744563D01*
X122700395Y-88755528D01*
X122658935Y-88781176D01*
X122622306Y-88812204D01*
X122591343Y-88849127D01*
X122578247Y-88869958D01*
X122566879Y-88892456D01*
X122557345Y-88916683D01*
X122549748Y-88942704D01*
X122544192Y-88970582D01*
X122540782Y-89000383D01*
X122539623Y-89032170D01*
X122315530Y-89032170D01*
X122316167Y-88998190D01*
X122318163Y-88963237D01*
X122321648Y-88927494D01*
X122326750Y-88891148D01*
X122333598Y-88854383D01*
X122342320Y-88817385D01*
X122353046Y-88780339D01*
X122365905Y-88743429D01*
X122381025Y-88706841D01*
X122398534Y-88670761D01*
X122418563Y-88635372D01*
X122441239Y-88600862D01*
X122466691Y-88567414D01*
X122495048Y-88535213D01*
X122526440Y-88504446D01*
X122560994Y-88475296D01*
X122580832Y-88460323D01*
X122601055Y-88446184D01*
X122642520Y-88420319D01*
X122685114Y-88397510D01*
X122728567Y-88377570D01*
X122772607Y-88360310D01*
X122816962Y-88345541D01*
X122861360Y-88333074D01*
X122905529Y-88322721D01*
X122949197Y-88314292D01*
X122992092Y-88307600D01*
X123033943Y-88302455D01*
X123074476Y-88298668D01*
X123113422Y-88296052D01*
X123150506Y-88294417D01*
X123185459Y-88293574D01*
X123218007Y-88293335D01*
X123231764Y-88293372D01*
G37*
G36*
X123881737Y-87630216D02*
G01*
X121765983Y-87630216D01*
X121737215Y-87630853D01*
X121711650Y-87633062D01*
X121682404Y-87639216D01*
X121658515Y-87650004D01*
X121639788Y-87666477D01*
X121626030Y-87689687D01*
X121617049Y-87720686D01*
X121613332Y-87749679D01*
X121612110Y-87784089D01*
X121612110Y-87850645D01*
X121612999Y-87882889D01*
X121615870Y-87910758D01*
X121623313Y-87941567D01*
X121635558Y-87965690D01*
X121653334Y-87983748D01*
X121677372Y-87996364D01*
X121708400Y-88004161D01*
X121736698Y-88007220D01*
X121769647Y-88008182D01*
X123878073Y-88008182D01*
X123910161Y-88007308D01*
X123937904Y-88004475D01*
X123968584Y-87997102D01*
X123992616Y-87984931D01*
X124010617Y-87967211D01*
X124023200Y-87943191D01*
X124030983Y-87912119D01*
X124034039Y-87883735D01*
X124035000Y-87850645D01*
X124035000Y-87784089D01*
X124034042Y-87752077D01*
X124031007Y-87724540D01*
X124023312Y-87694287D01*
X124010923Y-87670788D01*
X123993268Y-87653357D01*
X123969774Y-87641307D01*
X123939869Y-87633951D01*
X123912888Y-87631101D01*
X123881737Y-87630216D01*
G37*
G36*
X123536744Y-86239253D02*
G01*
X123511876Y-86239747D01*
X123487204Y-86241234D01*
X123462754Y-86243717D01*
X123438551Y-86247200D01*
X123402764Y-86254312D01*
X123367673Y-86263701D01*
X123333364Y-86275383D01*
X123299919Y-86289371D01*
X123267425Y-86305683D01*
X123235965Y-86324331D01*
X123215608Y-86338070D01*
X123195773Y-86352858D01*
X123176486Y-86368702D01*
X123152129Y-86391594D01*
X123130235Y-86414281D01*
X123110634Y-86436817D01*
X123093157Y-86459253D01*
X123077633Y-86481642D01*
X123063893Y-86504038D01*
X123051767Y-86526493D01*
X123041084Y-86549060D01*
X123031675Y-86571791D01*
X123019577Y-86606312D01*
X123009389Y-86641500D01*
X123003375Y-86665417D01*
X122997786Y-86689763D01*
X122992450Y-86714590D01*
X122987198Y-86739951D01*
X122980712Y-86768490D01*
X122974153Y-86796303D01*
X122967290Y-86823236D01*
X122959892Y-86849135D01*
X122951729Y-86873846D01*
X122942569Y-86897215D01*
X122926455Y-86929417D01*
X122906802Y-86957735D01*
X122882830Y-86981650D01*
X122853761Y-87000642D01*
X122831165Y-87010312D01*
X122805726Y-87017410D01*
X122777214Y-87021781D01*
X122745397Y-87023272D01*
X122716345Y-87022259D01*
X122689809Y-87019260D01*
X122665701Y-87014337D01*
X122633896Y-87003475D01*
X122607055Y-86988625D01*
X122584880Y-86969991D01*
X122567070Y-86947779D01*
X122553327Y-86922195D01*
X122543353Y-86893442D01*
X122536849Y-86861727D01*
X122533515Y-86827255D01*
X122532906Y-86802843D01*
X122534051Y-86762731D01*
X122537341Y-86725009D01*
X122542562Y-86689603D01*
X122549497Y-86656441D01*
X122557932Y-86625450D01*
X122567650Y-86596559D01*
X122578436Y-86569695D01*
X122590074Y-86544785D01*
X122602349Y-86521757D01*
X122615046Y-86500539D01*
X122634409Y-86471946D01*
X122653507Y-86447016D01*
X122671614Y-86425505D01*
X122688000Y-86407170D01*
X122702655Y-86386791D01*
X122706318Y-86368702D01*
X122698089Y-86344790D01*
X122674417Y-86333270D01*
X122647114Y-86326907D01*
X122622800Y-86322374D01*
X122608621Y-86319853D01*
X122580972Y-86312945D01*
X122555952Y-86307887D01*
X122529305Y-86302996D01*
X122504636Y-86298888D01*
X122480291Y-86295622D01*
X122476730Y-86295429D01*
X122452666Y-86300098D01*
X122435646Y-86320592D01*
X122422050Y-86345392D01*
X122410174Y-86368702D01*
X122395000Y-86399415D01*
X122380806Y-86430676D01*
X122367706Y-86462870D01*
X122355810Y-86496385D01*
X122345230Y-86531607D01*
X122338963Y-86556226D01*
X122333364Y-86581891D01*
X122328465Y-86608715D01*
X122324301Y-86636812D01*
X122320903Y-86666298D01*
X122318306Y-86697286D01*
X122316542Y-86729892D01*
X122315644Y-86764229D01*
X122315530Y-86782083D01*
X122320809Y-86822183D01*
X122327164Y-86864636D01*
X122335141Y-86908760D01*
X122345287Y-86953873D01*
X122358149Y-86999294D01*
X122374273Y-87044341D01*
X122394206Y-87088332D01*
X122418493Y-87130587D01*
X122432441Y-87150849D01*
X122447683Y-87170422D01*
X122464286Y-87189220D01*
X122482320Y-87207158D01*
X122501852Y-87224150D01*
X122522952Y-87240112D01*
X122545686Y-87254958D01*
X122570124Y-87268603D01*
X122596334Y-87280961D01*
X122624385Y-87291949D01*
X122654344Y-87301479D01*
X122686279Y-87309468D01*
X122720260Y-87315830D01*
X122756354Y-87320480D01*
X122794630Y-87323332D01*
X122835157Y-87324302D01*
X122872622Y-87323214D01*
X122908229Y-87320028D01*
X122942027Y-87314861D01*
X122974064Y-87307828D01*
X123004388Y-87299048D01*
X123033048Y-87288636D01*
X123060093Y-87276709D01*
X123085572Y-87263384D01*
X123109533Y-87248777D01*
X123132025Y-87233005D01*
X123153096Y-87216184D01*
X123172795Y-87198432D01*
X123191171Y-87179864D01*
X123208272Y-87160598D01*
X123224147Y-87140749D01*
X123238844Y-87120435D01*
X123252413Y-87099772D01*
X123276359Y-87057867D01*
X123296373Y-87015965D01*
X123312845Y-86975000D01*
X123326163Y-86935906D01*
X123336717Y-86899614D01*
X123344896Y-86867057D01*
X123351089Y-86839169D01*
X123353562Y-86827267D01*
X123359448Y-86801505D01*
X123365588Y-86775666D01*
X123372222Y-86749993D01*
X123379589Y-86724724D01*
X123387929Y-86700098D01*
X123397483Y-86676357D01*
X123408489Y-86653739D01*
X123421187Y-86632484D01*
X123435817Y-86612832D01*
X123452619Y-86595022D01*
X123471832Y-86579295D01*
X123493696Y-86565889D01*
X123518452Y-86555046D01*
X123546337Y-86547004D01*
X123577593Y-86542002D01*
X123612459Y-86540282D01*
X123650229Y-86541992D01*
X123683578Y-86546921D01*
X123712781Y-86554768D01*
X123738111Y-86565231D01*
X123759841Y-86578009D01*
X123786287Y-86600857D01*
X123806174Y-86627217D01*
X123820427Y-86656073D01*
X123829968Y-86686408D01*
X123835721Y-86717203D01*
X123838611Y-86747441D01*
X123839560Y-86776106D01*
X123839605Y-86785136D01*
X123838799Y-86816269D01*
X123836051Y-86850342D01*
X123830870Y-86886977D01*
X123825822Y-86912637D01*
X123819328Y-86939156D01*
X123811242Y-86966422D01*
X123801418Y-86994324D01*
X123789711Y-87022750D01*
X123775976Y-87051588D01*
X123760065Y-87080725D01*
X123741834Y-87110051D01*
X123721136Y-87139454D01*
X123697826Y-87168821D01*
X123671758Y-87198041D01*
X123657644Y-87212561D01*
X123639436Y-87231740D01*
X123625173Y-87252263D01*
X123622840Y-87268126D01*
X123631938Y-87292739D01*
X123654009Y-87305048D01*
X123664972Y-87306594D01*
X123693505Y-87314246D01*
X123722502Y-87320360D01*
X123747480Y-87325283D01*
X123773497Y-87330195D01*
X123798995Y-87334823D01*
X123829492Y-87340082D01*
X123856796Y-87344286D01*
X123864640Y-87345062D01*
X123889177Y-87337606D01*
X123913012Y-87317470D01*
X123930144Y-87296062D01*
X123946416Y-87270818D01*
X123961631Y-87243151D01*
X123975587Y-87214473D01*
X123988086Y-87186199D01*
X123998929Y-87159739D01*
X124007917Y-87136507D01*
X124014849Y-87117916D01*
X124025275Y-87087431D01*
X124034400Y-87057848D01*
X124042309Y-87029238D01*
X124049091Y-87001672D01*
X124054832Y-86975223D01*
X124059618Y-86949961D01*
X124065198Y-86914453D01*
X124069119Y-86882019D01*
X124071673Y-86852903D01*
X124073153Y-86827344D01*
X124073963Y-86799218D01*
X124074078Y-86778419D01*
X124073546Y-86745122D01*
X124071951Y-86712894D01*
X124069298Y-86681735D01*
X124065591Y-86651643D01*
X124060833Y-86622617D01*
X124055028Y-86594658D01*
X124048181Y-86567763D01*
X124040295Y-86541933D01*
X124031374Y-86517166D01*
X124021422Y-86493462D01*
X124010443Y-86470820D01*
X123998441Y-86449238D01*
X123971383Y-86409257D01*
X123940279Y-86373510D01*
X123905161Y-86341992D01*
X123866060Y-86314697D01*
X123823008Y-86291619D01*
X123800010Y-86281659D01*
X123776035Y-86272750D01*
X123751089Y-86264893D01*
X123725173Y-86258086D01*
X123698294Y-86252328D01*
X123670454Y-86247619D01*
X123641657Y-86243958D01*
X123611908Y-86241343D01*
X123581210Y-86239775D01*
X123549567Y-86239253D01*
X123536744Y-86239253D01*
G37*
D11*
X133834286Y-114467419D02*
X133834286Y-115276942D01*
X133834286Y-115276942D02*
X133881905Y-115372180D01*
X133881905Y-115372180D02*
X133929524Y-115419800D01*
X133929524Y-115419800D02*
X134024762Y-115467419D01*
X134024762Y-115467419D02*
X134215238Y-115467419D01*
X134215238Y-115467419D02*
X134310476Y-115419800D01*
X134310476Y-115419800D02*
X134358095Y-115372180D01*
X134358095Y-115372180D02*
X134405714Y-115276942D01*
X134405714Y-115276942D02*
X134405714Y-114467419D01*
X134881905Y-115467419D02*
X134881905Y-114467419D01*
X134881905Y-114467419D02*
X135262857Y-114467419D01*
X135262857Y-114467419D02*
X135358095Y-114515038D01*
X135358095Y-114515038D02*
X135405714Y-114562657D01*
X135405714Y-114562657D02*
X135453333Y-114657895D01*
X135453333Y-114657895D02*
X135453333Y-114800752D01*
X135453333Y-114800752D02*
X135405714Y-114895990D01*
X135405714Y-114895990D02*
X135358095Y-114943609D01*
X135358095Y-114943609D02*
X135262857Y-114991228D01*
X135262857Y-114991228D02*
X134881905Y-114991228D01*
X156221428Y-125103609D02*
X156364285Y-125151228D01*
X156364285Y-125151228D02*
X156411904Y-125198847D01*
X156411904Y-125198847D02*
X156459523Y-125294085D01*
X156459523Y-125294085D02*
X156459523Y-125436942D01*
X156459523Y-125436942D02*
X156411904Y-125532180D01*
X156411904Y-125532180D02*
X156364285Y-125579800D01*
X156364285Y-125579800D02*
X156269047Y-125627419D01*
X156269047Y-125627419D02*
X155888095Y-125627419D01*
X155888095Y-125627419D02*
X155888095Y-124627419D01*
X155888095Y-124627419D02*
X156221428Y-124627419D01*
X156221428Y-124627419D02*
X156316666Y-124675038D01*
X156316666Y-124675038D02*
X156364285Y-124722657D01*
X156364285Y-124722657D02*
X156411904Y-124817895D01*
X156411904Y-124817895D02*
X156411904Y-124913133D01*
X156411904Y-124913133D02*
X156364285Y-125008371D01*
X156364285Y-125008371D02*
X156316666Y-125055990D01*
X156316666Y-125055990D02*
X156221428Y-125103609D01*
X156221428Y-125103609D02*
X155888095Y-125103609D01*
X142853333Y-79119800D02*
X142996190Y-79167419D01*
X142996190Y-79167419D02*
X143234285Y-79167419D01*
X143234285Y-79167419D02*
X143329523Y-79119800D01*
X143329523Y-79119800D02*
X143377142Y-79072180D01*
X143377142Y-79072180D02*
X143424761Y-78976942D01*
X143424761Y-78976942D02*
X143424761Y-78881704D01*
X143424761Y-78881704D02*
X143377142Y-78786466D01*
X143377142Y-78786466D02*
X143329523Y-78738847D01*
X143329523Y-78738847D02*
X143234285Y-78691228D01*
X143234285Y-78691228D02*
X143043809Y-78643609D01*
X143043809Y-78643609D02*
X142948571Y-78595990D01*
X142948571Y-78595990D02*
X142900952Y-78548371D01*
X142900952Y-78548371D02*
X142853333Y-78453133D01*
X142853333Y-78453133D02*
X142853333Y-78357895D01*
X142853333Y-78357895D02*
X142900952Y-78262657D01*
X142900952Y-78262657D02*
X142948571Y-78215038D01*
X142948571Y-78215038D02*
X143043809Y-78167419D01*
X143043809Y-78167419D02*
X143281904Y-78167419D01*
X143281904Y-78167419D02*
X143424761Y-78215038D01*
X143805714Y-79119800D02*
X143948571Y-79167419D01*
X143948571Y-79167419D02*
X144186666Y-79167419D01*
X144186666Y-79167419D02*
X144281904Y-79119800D01*
X144281904Y-79119800D02*
X144329523Y-79072180D01*
X144329523Y-79072180D02*
X144377142Y-78976942D01*
X144377142Y-78976942D02*
X144377142Y-78881704D01*
X144377142Y-78881704D02*
X144329523Y-78786466D01*
X144329523Y-78786466D02*
X144281904Y-78738847D01*
X144281904Y-78738847D02*
X144186666Y-78691228D01*
X144186666Y-78691228D02*
X143996190Y-78643609D01*
X143996190Y-78643609D02*
X143900952Y-78595990D01*
X143900952Y-78595990D02*
X143853333Y-78548371D01*
X143853333Y-78548371D02*
X143805714Y-78453133D01*
X143805714Y-78453133D02*
X143805714Y-78357895D01*
X143805714Y-78357895D02*
X143853333Y-78262657D01*
X143853333Y-78262657D02*
X143900952Y-78215038D01*
X143900952Y-78215038D02*
X143996190Y-78167419D01*
X143996190Y-78167419D02*
X144234285Y-78167419D01*
X144234285Y-78167419D02*
X144377142Y-78215038D01*
X144805714Y-79167419D02*
X144805714Y-78167419D01*
X144805714Y-78167419D02*
X145043809Y-78167419D01*
X145043809Y-78167419D02*
X145186666Y-78215038D01*
X145186666Y-78215038D02*
X145281904Y-78310276D01*
X145281904Y-78310276D02*
X145329523Y-78405514D01*
X145329523Y-78405514D02*
X145377142Y-78595990D01*
X145377142Y-78595990D02*
X145377142Y-78738847D01*
X145377142Y-78738847D02*
X145329523Y-78929323D01*
X145329523Y-78929323D02*
X145281904Y-79024561D01*
X145281904Y-79024561D02*
X145186666Y-79119800D01*
X145186666Y-79119800D02*
X145043809Y-79167419D01*
X145043809Y-79167419D02*
X144805714Y-79167419D01*
X146329523Y-79167419D02*
X145758095Y-79167419D01*
X146043809Y-79167419D02*
X146043809Y-78167419D01*
X146043809Y-78167419D02*
X145948571Y-78310276D01*
X145948571Y-78310276D02*
X145853333Y-78405514D01*
X145853333Y-78405514D02*
X145758095Y-78453133D01*
X146662857Y-78167419D02*
X147281904Y-78167419D01*
X147281904Y-78167419D02*
X146948571Y-78548371D01*
X146948571Y-78548371D02*
X147091428Y-78548371D01*
X147091428Y-78548371D02*
X147186666Y-78595990D01*
X147186666Y-78595990D02*
X147234285Y-78643609D01*
X147234285Y-78643609D02*
X147281904Y-78738847D01*
X147281904Y-78738847D02*
X147281904Y-78976942D01*
X147281904Y-78976942D02*
X147234285Y-79072180D01*
X147234285Y-79072180D02*
X147186666Y-79119800D01*
X147186666Y-79119800D02*
X147091428Y-79167419D01*
X147091428Y-79167419D02*
X146805714Y-79167419D01*
X146805714Y-79167419D02*
X146710476Y-79119800D01*
X146710476Y-79119800D02*
X146662857Y-79072180D01*
X147900952Y-78167419D02*
X147996190Y-78167419D01*
X147996190Y-78167419D02*
X148091428Y-78215038D01*
X148091428Y-78215038D02*
X148139047Y-78262657D01*
X148139047Y-78262657D02*
X148186666Y-78357895D01*
X148186666Y-78357895D02*
X148234285Y-78548371D01*
X148234285Y-78548371D02*
X148234285Y-78786466D01*
X148234285Y-78786466D02*
X148186666Y-78976942D01*
X148186666Y-78976942D02*
X148139047Y-79072180D01*
X148139047Y-79072180D02*
X148091428Y-79119800D01*
X148091428Y-79119800D02*
X147996190Y-79167419D01*
X147996190Y-79167419D02*
X147900952Y-79167419D01*
X147900952Y-79167419D02*
X147805714Y-79119800D01*
X147805714Y-79119800D02*
X147758095Y-79072180D01*
X147758095Y-79072180D02*
X147710476Y-78976942D01*
X147710476Y-78976942D02*
X147662857Y-78786466D01*
X147662857Y-78786466D02*
X147662857Y-78548371D01*
X147662857Y-78548371D02*
X147710476Y-78357895D01*
X147710476Y-78357895D02*
X147758095Y-78262657D01*
X147758095Y-78262657D02*
X147805714Y-78215038D01*
X147805714Y-78215038D02*
X147900952Y-78167419D01*
X149091428Y-78167419D02*
X148900952Y-78167419D01*
X148900952Y-78167419D02*
X148805714Y-78215038D01*
X148805714Y-78215038D02*
X148758095Y-78262657D01*
X148758095Y-78262657D02*
X148662857Y-78405514D01*
X148662857Y-78405514D02*
X148615238Y-78595990D01*
X148615238Y-78595990D02*
X148615238Y-78976942D01*
X148615238Y-78976942D02*
X148662857Y-79072180D01*
X148662857Y-79072180D02*
X148710476Y-79119800D01*
X148710476Y-79119800D02*
X148805714Y-79167419D01*
X148805714Y-79167419D02*
X148996190Y-79167419D01*
X148996190Y-79167419D02*
X149091428Y-79119800D01*
X149091428Y-79119800D02*
X149139047Y-79072180D01*
X149139047Y-79072180D02*
X149186666Y-78976942D01*
X149186666Y-78976942D02*
X149186666Y-78738847D01*
X149186666Y-78738847D02*
X149139047Y-78643609D01*
X149139047Y-78643609D02*
X149091428Y-78595990D01*
X149091428Y-78595990D02*
X148996190Y-78548371D01*
X148996190Y-78548371D02*
X148805714Y-78548371D01*
X148805714Y-78548371D02*
X148710476Y-78595990D01*
X148710476Y-78595990D02*
X148662857Y-78643609D01*
X148662857Y-78643609D02*
X148615238Y-78738847D01*
X141306666Y-82999133D02*
X141540000Y-83699133D01*
X141540000Y-83699133D02*
X141773333Y-82999133D01*
X142406666Y-83632466D02*
X142373333Y-83665800D01*
X142373333Y-83665800D02*
X142273333Y-83699133D01*
X142273333Y-83699133D02*
X142206666Y-83699133D01*
X142206666Y-83699133D02*
X142106666Y-83665800D01*
X142106666Y-83665800D02*
X142040000Y-83599133D01*
X142040000Y-83599133D02*
X142006666Y-83532466D01*
X142006666Y-83532466D02*
X141973333Y-83399133D01*
X141973333Y-83399133D02*
X141973333Y-83299133D01*
X141973333Y-83299133D02*
X142006666Y-83165800D01*
X142006666Y-83165800D02*
X142040000Y-83099133D01*
X142040000Y-83099133D02*
X142106666Y-83032466D01*
X142106666Y-83032466D02*
X142206666Y-82999133D01*
X142206666Y-82999133D02*
X142273333Y-82999133D01*
X142273333Y-82999133D02*
X142373333Y-83032466D01*
X142373333Y-83032466D02*
X142406666Y-83065800D01*
X143106666Y-83632466D02*
X143073333Y-83665800D01*
X143073333Y-83665800D02*
X142973333Y-83699133D01*
X142973333Y-83699133D02*
X142906666Y-83699133D01*
X142906666Y-83699133D02*
X142806666Y-83665800D01*
X142806666Y-83665800D02*
X142740000Y-83599133D01*
X142740000Y-83599133D02*
X142706666Y-83532466D01*
X142706666Y-83532466D02*
X142673333Y-83399133D01*
X142673333Y-83399133D02*
X142673333Y-83299133D01*
X142673333Y-83299133D02*
X142706666Y-83165800D01*
X142706666Y-83165800D02*
X142740000Y-83099133D01*
X142740000Y-83099133D02*
X142806666Y-83032466D01*
X142806666Y-83032466D02*
X142906666Y-82999133D01*
X142906666Y-82999133D02*
X142973333Y-82999133D01*
X142973333Y-82999133D02*
X143073333Y-83032466D01*
X143073333Y-83032466D02*
X143106666Y-83065800D01*
X149010000Y-83665800D02*
X149110000Y-83699133D01*
X149110000Y-83699133D02*
X149276667Y-83699133D01*
X149276667Y-83699133D02*
X149343333Y-83665800D01*
X149343333Y-83665800D02*
X149376667Y-83632466D01*
X149376667Y-83632466D02*
X149410000Y-83565800D01*
X149410000Y-83565800D02*
X149410000Y-83499133D01*
X149410000Y-83499133D02*
X149376667Y-83432466D01*
X149376667Y-83432466D02*
X149343333Y-83399133D01*
X149343333Y-83399133D02*
X149276667Y-83365800D01*
X149276667Y-83365800D02*
X149143333Y-83332466D01*
X149143333Y-83332466D02*
X149076667Y-83299133D01*
X149076667Y-83299133D02*
X149043333Y-83265800D01*
X149043333Y-83265800D02*
X149010000Y-83199133D01*
X149010000Y-83199133D02*
X149010000Y-83132466D01*
X149010000Y-83132466D02*
X149043333Y-83065800D01*
X149043333Y-83065800D02*
X149076667Y-83032466D01*
X149076667Y-83032466D02*
X149143333Y-82999133D01*
X149143333Y-82999133D02*
X149310000Y-82999133D01*
X149310000Y-82999133D02*
X149410000Y-83032466D01*
X149710000Y-83699133D02*
X149710000Y-82999133D01*
X149710000Y-82999133D02*
X149876667Y-82999133D01*
X149876667Y-82999133D02*
X149976667Y-83032466D01*
X149976667Y-83032466D02*
X150043334Y-83099133D01*
X150043334Y-83099133D02*
X150076667Y-83165800D01*
X150076667Y-83165800D02*
X150110000Y-83299133D01*
X150110000Y-83299133D02*
X150110000Y-83399133D01*
X150110000Y-83399133D02*
X150076667Y-83532466D01*
X150076667Y-83532466D02*
X150043334Y-83599133D01*
X150043334Y-83599133D02*
X149976667Y-83665800D01*
X149976667Y-83665800D02*
X149876667Y-83699133D01*
X149876667Y-83699133D02*
X149710000Y-83699133D01*
X150376667Y-83499133D02*
X150710000Y-83499133D01*
X150310000Y-83699133D02*
X150543334Y-82999133D01*
X150543334Y-82999133D02*
X150776667Y-83699133D01*
X144246667Y-83032466D02*
X144180000Y-82999133D01*
X144180000Y-82999133D02*
X144080000Y-82999133D01*
X144080000Y-82999133D02*
X143980000Y-83032466D01*
X143980000Y-83032466D02*
X143913334Y-83099133D01*
X143913334Y-83099133D02*
X143880000Y-83165800D01*
X143880000Y-83165800D02*
X143846667Y-83299133D01*
X143846667Y-83299133D02*
X143846667Y-83399133D01*
X143846667Y-83399133D02*
X143880000Y-83532466D01*
X143880000Y-83532466D02*
X143913334Y-83599133D01*
X143913334Y-83599133D02*
X143980000Y-83665800D01*
X143980000Y-83665800D02*
X144080000Y-83699133D01*
X144080000Y-83699133D02*
X144146667Y-83699133D01*
X144146667Y-83699133D02*
X144246667Y-83665800D01*
X144246667Y-83665800D02*
X144280000Y-83632466D01*
X144280000Y-83632466D02*
X144280000Y-83399133D01*
X144280000Y-83399133D02*
X144146667Y-83399133D01*
X144580000Y-83699133D02*
X144580000Y-82999133D01*
X144580000Y-82999133D02*
X144980000Y-83699133D01*
X144980000Y-83699133D02*
X144980000Y-82999133D01*
X145313333Y-83699133D02*
X145313333Y-82999133D01*
X145313333Y-82999133D02*
X145480000Y-82999133D01*
X145480000Y-82999133D02*
X145580000Y-83032466D01*
X145580000Y-83032466D02*
X145646667Y-83099133D01*
X145646667Y-83099133D02*
X145680000Y-83165800D01*
X145680000Y-83165800D02*
X145713333Y-83299133D01*
X145713333Y-83299133D02*
X145713333Y-83399133D01*
X145713333Y-83399133D02*
X145680000Y-83532466D01*
X145680000Y-83532466D02*
X145646667Y-83599133D01*
X145646667Y-83599133D02*
X145580000Y-83665800D01*
X145580000Y-83665800D02*
X145480000Y-83699133D01*
X145480000Y-83699133D02*
X145313333Y-83699133D01*
X146486666Y-83665800D02*
X146586666Y-83699133D01*
X146586666Y-83699133D02*
X146753333Y-83699133D01*
X146753333Y-83699133D02*
X146819999Y-83665800D01*
X146819999Y-83665800D02*
X146853333Y-83632466D01*
X146853333Y-83632466D02*
X146886666Y-83565800D01*
X146886666Y-83565800D02*
X146886666Y-83499133D01*
X146886666Y-83499133D02*
X146853333Y-83432466D01*
X146853333Y-83432466D02*
X146819999Y-83399133D01*
X146819999Y-83399133D02*
X146753333Y-83365800D01*
X146753333Y-83365800D02*
X146619999Y-83332466D01*
X146619999Y-83332466D02*
X146553333Y-83299133D01*
X146553333Y-83299133D02*
X146519999Y-83265800D01*
X146519999Y-83265800D02*
X146486666Y-83199133D01*
X146486666Y-83199133D02*
X146486666Y-83132466D01*
X146486666Y-83132466D02*
X146519999Y-83065800D01*
X146519999Y-83065800D02*
X146553333Y-83032466D01*
X146553333Y-83032466D02*
X146619999Y-82999133D01*
X146619999Y-82999133D02*
X146786666Y-82999133D01*
X146786666Y-82999133D02*
X146886666Y-83032466D01*
X147586666Y-83632466D02*
X147553333Y-83665800D01*
X147553333Y-83665800D02*
X147453333Y-83699133D01*
X147453333Y-83699133D02*
X147386666Y-83699133D01*
X147386666Y-83699133D02*
X147286666Y-83665800D01*
X147286666Y-83665800D02*
X147220000Y-83599133D01*
X147220000Y-83599133D02*
X147186666Y-83532466D01*
X147186666Y-83532466D02*
X147153333Y-83399133D01*
X147153333Y-83399133D02*
X147153333Y-83299133D01*
X147153333Y-83299133D02*
X147186666Y-83165800D01*
X147186666Y-83165800D02*
X147220000Y-83099133D01*
X147220000Y-83099133D02*
X147286666Y-83032466D01*
X147286666Y-83032466D02*
X147386666Y-82999133D01*
X147386666Y-82999133D02*
X147453333Y-82999133D01*
X147453333Y-82999133D02*
X147553333Y-83032466D01*
X147553333Y-83032466D02*
X147586666Y-83065800D01*
X148220000Y-83699133D02*
X147886666Y-83699133D01*
X147886666Y-83699133D02*
X147886666Y-82999133D01*
X139606666Y-121817419D02*
X139273333Y-121341228D01*
X139035238Y-121817419D02*
X139035238Y-120817419D01*
X139035238Y-120817419D02*
X139416190Y-120817419D01*
X139416190Y-120817419D02*
X139511428Y-120865038D01*
X139511428Y-120865038D02*
X139559047Y-120912657D01*
X139559047Y-120912657D02*
X139606666Y-121007895D01*
X139606666Y-121007895D02*
X139606666Y-121150752D01*
X139606666Y-121150752D02*
X139559047Y-121245990D01*
X139559047Y-121245990D02*
X139511428Y-121293609D01*
X139511428Y-121293609D02*
X139416190Y-121341228D01*
X139416190Y-121341228D02*
X139035238Y-121341228D01*
X140035238Y-121817419D02*
X140035238Y-120817419D01*
X141035237Y-120865038D02*
X140939999Y-120817419D01*
X140939999Y-120817419D02*
X140797142Y-120817419D01*
X140797142Y-120817419D02*
X140654285Y-120865038D01*
X140654285Y-120865038D02*
X140559047Y-120960276D01*
X140559047Y-120960276D02*
X140511428Y-121055514D01*
X140511428Y-121055514D02*
X140463809Y-121245990D01*
X140463809Y-121245990D02*
X140463809Y-121388847D01*
X140463809Y-121388847D02*
X140511428Y-121579323D01*
X140511428Y-121579323D02*
X140559047Y-121674561D01*
X140559047Y-121674561D02*
X140654285Y-121769800D01*
X140654285Y-121769800D02*
X140797142Y-121817419D01*
X140797142Y-121817419D02*
X140892380Y-121817419D01*
X140892380Y-121817419D02*
X141035237Y-121769800D01*
X141035237Y-121769800D02*
X141082856Y-121722180D01*
X141082856Y-121722180D02*
X141082856Y-121388847D01*
X141082856Y-121388847D02*
X140892380Y-121388847D01*
X141511428Y-121817419D02*
X141511428Y-120817419D01*
X141511428Y-121293609D02*
X142082856Y-121293609D01*
X142082856Y-121817419D02*
X142082856Y-120817419D01*
X142416190Y-120817419D02*
X142987618Y-120817419D01*
X142701904Y-121817419D02*
X142701904Y-120817419D01*
X132709048Y-128167419D02*
X132709048Y-127167419D01*
X132709048Y-127167419D02*
X132947143Y-127167419D01*
X132947143Y-127167419D02*
X133090000Y-127215038D01*
X133090000Y-127215038D02*
X133185238Y-127310276D01*
X133185238Y-127310276D02*
X133232857Y-127405514D01*
X133232857Y-127405514D02*
X133280476Y-127595990D01*
X133280476Y-127595990D02*
X133280476Y-127738847D01*
X133280476Y-127738847D02*
X133232857Y-127929323D01*
X133232857Y-127929323D02*
X133185238Y-128024561D01*
X133185238Y-128024561D02*
X133090000Y-128119800D01*
X133090000Y-128119800D02*
X132947143Y-128167419D01*
X132947143Y-128167419D02*
X132709048Y-128167419D01*
X133899524Y-127167419D02*
X134090000Y-127167419D01*
X134090000Y-127167419D02*
X134185238Y-127215038D01*
X134185238Y-127215038D02*
X134280476Y-127310276D01*
X134280476Y-127310276D02*
X134328095Y-127500752D01*
X134328095Y-127500752D02*
X134328095Y-127834085D01*
X134328095Y-127834085D02*
X134280476Y-128024561D01*
X134280476Y-128024561D02*
X134185238Y-128119800D01*
X134185238Y-128119800D02*
X134090000Y-128167419D01*
X134090000Y-128167419D02*
X133899524Y-128167419D01*
X133899524Y-128167419D02*
X133804286Y-128119800D01*
X133804286Y-128119800D02*
X133709048Y-128024561D01*
X133709048Y-128024561D02*
X133661429Y-127834085D01*
X133661429Y-127834085D02*
X133661429Y-127500752D01*
X133661429Y-127500752D02*
X133709048Y-127310276D01*
X133709048Y-127310276D02*
X133804286Y-127215038D01*
X133804286Y-127215038D02*
X133899524Y-127167419D01*
X134661429Y-127167419D02*
X134899524Y-128167419D01*
X134899524Y-128167419D02*
X135090000Y-127453133D01*
X135090000Y-127453133D02*
X135280476Y-128167419D01*
X135280476Y-128167419D02*
X135518572Y-127167419D01*
X135899524Y-128167419D02*
X135899524Y-127167419D01*
X135899524Y-127167419D02*
X136470952Y-128167419D01*
X136470952Y-128167419D02*
X136470952Y-127167419D01*
X160991905Y-116451704D02*
X161468095Y-116451704D01*
X160896667Y-116737419D02*
X161230000Y-115737419D01*
X161230000Y-115737419D02*
X161563333Y-116737419D01*
X127287618Y-121817419D02*
X126811428Y-121817419D01*
X126811428Y-121817419D02*
X126811428Y-120817419D01*
X127620952Y-121293609D02*
X127954285Y-121293609D01*
X128097142Y-121817419D02*
X127620952Y-121817419D01*
X127620952Y-121817419D02*
X127620952Y-120817419D01*
X127620952Y-120817419D02*
X128097142Y-120817419D01*
X128859047Y-121293609D02*
X128525714Y-121293609D01*
X128525714Y-121817419D02*
X128525714Y-120817419D01*
X128525714Y-120817419D02*
X129001904Y-120817419D01*
X129240000Y-120817419D02*
X129811428Y-120817419D01*
X129525714Y-121817419D02*
X129525714Y-120817419D01*
%TO.C,UP*%
X132080000Y-114270000D02*
X137160000Y-114270000D01*
X132080000Y-119350000D02*
X132080000Y-114270000D01*
X137160000Y-114270000D02*
X137160000Y-119350000D01*
X137160000Y-119350000D02*
X132080000Y-119350000D01*
%TO.C,B*%
X153610000Y-124430000D02*
X158690000Y-124430000D01*
X153610000Y-129510000D02*
X153610000Y-124430000D01*
X158690000Y-124430000D02*
X158690000Y-129510000D01*
X158690000Y-129510000D02*
X153610000Y-129510000D01*
%TO.C,SSD1306*%
X140700000Y-79710000D02*
X151400000Y-79710000D01*
X140700000Y-82790000D02*
X140700000Y-79710000D01*
X151400000Y-79710000D02*
X151400000Y-82790000D01*
X151400000Y-82790000D02*
X140700000Y-82790000D01*
%TO.C,RIGHT*%
X138400000Y-120620000D02*
X143480000Y-120620000D01*
X138400000Y-125700000D02*
X138400000Y-120620000D01*
X143480000Y-120620000D02*
X143480000Y-125700000D01*
X143480000Y-125700000D02*
X138400000Y-125700000D01*
%TO.C,DOWN*%
X132050000Y-126970000D02*
X137130000Y-126970000D01*
X132050000Y-132050000D02*
X132050000Y-126970000D01*
X137130000Y-126970000D02*
X137130000Y-132050000D01*
X137130000Y-132050000D02*
X132050000Y-132050000D01*
%TO.C,A*%
X158690000Y-115540000D02*
X163770000Y-115540000D01*
X158690000Y-120620000D02*
X158690000Y-115540000D01*
X163770000Y-115540000D02*
X163770000Y-120620000D01*
X163770000Y-120620000D02*
X158690000Y-120620000D01*
%TO.C,LEFT*%
X125700000Y-120620000D02*
X130780000Y-120620000D01*
X125700000Y-125700000D02*
X125700000Y-120620000D01*
X130780000Y-120620000D02*
X130780000Y-125700000D01*
X130780000Y-125700000D02*
X125700000Y-125700000D01*
%TD*%
M02*
