%TF.GenerationSoftware,KiCad,Pcbnew,7.0.9+dfsg-1*%
%TF.CreationDate,2023-12-18T20:04:21+07:00*%
%TF.ProjectId,wifi,77696669-2e6b-4696-9361-645f70636258,rev?*%
%TF.SameCoordinates,Original*%
%TF.FileFunction,Copper,L1,Top*%
%TF.FilePolarity,Positive*%
%FSLAX46Y46*%
G04 Gerber Fmt 4.6, Leading zero omitted, Abs format (unit mm)*
G04 Created by KiCad (PCBNEW 7.0.9+dfsg-1) date 2023-12-18 20:04:21*
%MOMM*%
%LPD*%
G01*
G04 APERTURE LIST*
%TA.AperFunction,ComponentPad*%
%ADD10C,1.800000*%
%TD*%
%TA.AperFunction,ComponentPad*%
%ADD11C,1.524000*%
%TD*%
%TA.AperFunction,ViaPad*%
%ADD12C,0.800000*%
%TD*%
%TA.AperFunction,Conductor*%
%ADD13C,0.250000*%
%TD*%
G04 APERTURE END LIST*
D10*
%TO.P,UP,1*%
%TO.N,N/C*%
X133380000Y-116810000D03*
%TO.P,UP,2*%
X135920000Y-116810000D03*
%TD*%
%TO.P,B,1*%
%TO.N,N/C*%
X154910000Y-126970000D03*
%TO.P,B,2*%
X157450000Y-126970000D03*
%TD*%
%TO.P,SSD1306,1*%
%TO.N,N/C*%
X142240000Y-81250000D03*
%TO.P,SSD1306,2*%
X144780000Y-81250000D03*
%TO.P,SSD1306,3*%
X147320000Y-81250000D03*
%TO.P,SSD1306,4*%
X149860000Y-81250000D03*
%TD*%
%TO.P,RIGHT,1*%
%TO.N,N/C*%
X139700000Y-123160000D03*
%TO.P,RIGHT,2*%
X142240000Y-123160000D03*
%TD*%
%TO.P,DOWN,1*%
%TO.N,N/C*%
X133350000Y-129510000D03*
%TO.P,DOWN,2*%
X135890000Y-129510000D03*
%TD*%
%TO.P,A,1*%
%TO.N,N/C*%
X159990000Y-118080000D03*
%TO.P,A,2*%
X162530000Y-118080000D03*
%TD*%
%TO.P,LEFT,1*%
%TO.N,N/C*%
X127000000Y-123160000D03*
%TO.P,LEFT,2*%
X129540000Y-123160000D03*
%TD*%
D11*
%TO.P,R2,1*%
%TO.N,N/C*%
X134620000Y-92710000D03*
%TO.P,R2,2*%
X134620000Y-100330000D03*
%TD*%
D10*
%TO.P,OTAK DISINI,1*%
%TO.N,N/C*%
X135860000Y-85060000D03*
%TO.P,OTAK DISINI,2*%
X138400000Y-85060000D03*
%TO.P,OTAK DISINI,3*%
X140940000Y-85060000D03*
%TO.P,OTAK DISINI,4*%
X143480000Y-85060000D03*
%TO.P,OTAK DISINI,5*%
X146020000Y-85060000D03*
%TO.P,OTAK DISINI,6*%
X148560000Y-85060000D03*
%TO.P,OTAK DISINI,7*%
X151100000Y-85060000D03*
%TO.P,OTAK DISINI,8*%
X153640000Y-85060000D03*
%TO.P,OTAK DISINI,9*%
X153640000Y-107920000D03*
%TO.P,OTAK DISINI,10*%
X151100000Y-107920000D03*
%TO.P,OTAK DISINI,11*%
X148560000Y-107920000D03*
%TO.P,OTAK DISINI,12*%
X146020000Y-107920000D03*
%TO.P,OTAK DISINI,13*%
X143480000Y-107920000D03*
%TO.P,OTAK DISINI,14*%
X140940000Y-107920000D03*
%TO.P,OTAK DISINI,15*%
X138400000Y-107920000D03*
%TO.P,OTAK DISINI,16*%
X135860000Y-107920000D03*
%TD*%
D11*
%TO.P,R1,1*%
%TO.N,N/C*%
X130810000Y-92710000D03*
%TO.P,R1,2*%
X130810000Y-100330000D03*
%TD*%
D12*
%TO.N,*%
X152400000Y-111760000D03*
X142240000Y-91440000D03*
X157480000Y-92710000D03*
X143480000Y-88870000D03*
X149860000Y-100330000D03*
X149830000Y-93950000D03*
X147290000Y-92680000D03*
X151100000Y-99030000D03*
X146050000Y-90170000D03*
X143510000Y-90170000D03*
X152400000Y-91440000D03*
X143510000Y-110490000D03*
X132080000Y-109220000D03*
X133350000Y-114300000D03*
X151130000Y-96520000D03*
X140940000Y-99030000D03*
X138430000Y-93980000D03*
X154940000Y-101600000D03*
X161290000Y-92710000D03*
X134620000Y-111760000D03*
%TD*%
D13*
%TO.N,*%
X132080000Y-127000000D02*
X125730000Y-127000000D01*
X140940000Y-87660000D02*
X140940000Y-85060000D01*
X139700000Y-123160000D02*
X139700000Y-130810000D01*
X127000000Y-121920000D02*
X128270000Y-120650000D01*
X147320000Y-96520000D02*
X143510000Y-92710000D01*
X161290000Y-92710000D02*
X160020000Y-91440000D01*
X153670000Y-115570000D02*
X148560000Y-110460000D01*
X144780000Y-81250000D02*
X144780000Y-92710000D01*
X147320000Y-81250000D02*
X147320000Y-92650000D01*
X138430000Y-93980000D02*
X138400000Y-93950000D01*
X147320000Y-111760000D02*
X147320000Y-96520000D01*
X157480000Y-106680000D02*
X157480000Y-92710000D01*
X152400000Y-111760000D02*
X157480000Y-106680000D01*
X142240000Y-110490000D02*
X143510000Y-110490000D01*
X149860000Y-81250000D02*
X149860000Y-93920000D01*
X158750000Y-114300000D02*
X153670000Y-114300000D01*
X148560000Y-85060000D02*
X148560000Y-93950000D01*
X133380000Y-116810000D02*
X135890000Y-114300000D01*
X134620000Y-133350000D02*
X129540000Y-128270000D01*
X146020000Y-85060000D02*
X146020000Y-90140000D01*
X144780000Y-111760000D02*
X144780000Y-97790000D01*
X124460000Y-120650000D02*
X125730000Y-119380000D01*
X129540000Y-119380000D02*
X130810000Y-118110000D01*
X132080000Y-118110000D02*
X132080000Y-115570000D01*
X137160000Y-133350000D02*
X134620000Y-133350000D01*
X135890000Y-114300000D02*
X146050000Y-114300000D01*
X130810000Y-115570000D02*
X133350000Y-113030000D01*
X142240000Y-87630000D02*
X143480000Y-88870000D01*
X153670000Y-114300000D02*
X149860000Y-110490000D01*
X132080000Y-115570000D02*
X133350000Y-114300000D01*
X146020000Y-90140000D02*
X146050000Y-90170000D01*
X151100000Y-92680000D02*
X151100000Y-85060000D01*
X144780000Y-96520000D02*
X140970000Y-92710000D01*
X154940000Y-96520000D02*
X151100000Y-92680000D01*
X154910000Y-121950000D02*
X157480000Y-119380000D01*
X129540000Y-128270000D02*
X125730000Y-128270000D01*
X160020000Y-91440000D02*
X152400000Y-91440000D01*
X138430000Y-110490000D02*
X139700000Y-109220000D01*
X144780000Y-97790000D02*
X144780000Y-96520000D01*
X129540000Y-114300000D02*
X133350000Y-110490000D01*
X159990000Y-115540000D02*
X158750000Y-114300000D01*
X148560000Y-110460000D02*
X148560000Y-107920000D01*
X125730000Y-119380000D02*
X129540000Y-119380000D01*
X144780000Y-92710000D02*
X151100000Y-99030000D01*
X134620000Y-102870000D02*
X132080000Y-105410000D01*
X125730000Y-118110000D02*
X128270000Y-118110000D01*
X133350000Y-110490000D02*
X138430000Y-110490000D01*
X129540000Y-120650000D02*
X132080000Y-118110000D01*
X127000000Y-123160000D02*
X127000000Y-121920000D01*
X143510000Y-92710000D02*
X142240000Y-91440000D01*
X149860000Y-110490000D02*
X149860000Y-100330000D01*
X133350000Y-113030000D02*
X143510000Y-113030000D01*
X142240000Y-81250000D02*
X142240000Y-87630000D01*
X147320000Y-113030000D02*
X147320000Y-111760000D01*
X124460000Y-125730000D02*
X124460000Y-120650000D01*
X146050000Y-114300000D02*
X147320000Y-113030000D01*
X132080000Y-105410000D02*
X132080000Y-109220000D01*
X138400000Y-93950000D02*
X138400000Y-85060000D01*
X154940000Y-101600000D02*
X154940000Y-96520000D01*
X129540000Y-116840000D02*
X129540000Y-114300000D01*
X148560000Y-93950000D02*
X151130000Y-96520000D01*
X130810000Y-118110000D02*
X130810000Y-115570000D01*
X140970000Y-90170000D02*
X143510000Y-90170000D01*
X143510000Y-113030000D02*
X144780000Y-111760000D01*
X134620000Y-100330000D02*
X134620000Y-102870000D01*
X139700000Y-109220000D02*
X139700000Y-88900000D01*
X123190000Y-125730000D02*
X123190000Y-120650000D01*
X123190000Y-120650000D02*
X125730000Y-118110000D01*
X140970000Y-111760000D02*
X142240000Y-110490000D01*
X140970000Y-92710000D02*
X140970000Y-90170000D01*
X157480000Y-119380000D02*
X157480000Y-116840000D01*
X149860000Y-93920000D02*
X149830000Y-93950000D01*
X154910000Y-126970000D02*
X154910000Y-121950000D01*
X133350000Y-128270000D02*
X132080000Y-127000000D01*
X133350000Y-129510000D02*
X133350000Y-128270000D01*
X159990000Y-118080000D02*
X159990000Y-115540000D01*
X140940000Y-107920000D02*
X140940000Y-99030000D01*
X156210000Y-115570000D02*
X153670000Y-115570000D01*
X128270000Y-120650000D02*
X129540000Y-120650000D01*
X134620000Y-111760000D02*
X140970000Y-111760000D01*
X128270000Y-118110000D02*
X129540000Y-116840000D01*
X125730000Y-127000000D02*
X124460000Y-125730000D01*
X139700000Y-88900000D02*
X140940000Y-87660000D01*
X125730000Y-128270000D02*
X123190000Y-125730000D01*
X139700000Y-130810000D02*
X137160000Y-133350000D01*
X147320000Y-92650000D02*
X147290000Y-92680000D01*
X157480000Y-116840000D02*
X156210000Y-115570000D01*
%TD*%
M02*
